<?xml version="1.0" standalone="no"?>
<!DOCTYPE svg PUBLIC "-//W3C//DTD SVG 1.1//EN" "http://www.w3.org/Graphics/SVG/1.1/DTD/svg11.dtd" >
<svg xmlns="http://www.w3.org/2000/svg">
<metadata></metadata>
<defs>
<font id="digital-7_monoitalic" horiz-adv-x="968" >
<font-face units-per-em="2048" ascent="1638" descent="-410" />
<missing-glyph horiz-adv-x="500" />
<glyph horiz-adv-x="2048" />
<glyph horiz-adv-x="2048" />
<glyph unicode="&#xd;" />
<glyph unicode=" " />
<glyph unicode="!" d="M337 0l15 149h149l-15 -149h-149zM367 298l26 242l123 112l33 -38l-33 -316h-149zM421 801l41 391l70 149q73 -19 84 -94l-54 -521l-43 -37z" />
<glyph unicode="&#x22;" d="M290 1043l32 298h149l-32 -298l-82 -75zM590 1044l32 298h149l-32 -298l-82 -74z" />
<glyph unicode="#" d="M56 521l82 75h74l67 -75l-82 -74h-74zM88 817l81 75h75l67 -75l-82 -74h-74zM218 296l13 114l82 74l67 -74l-13 -114l-82 -74zM253 633l10 74l81 75l67 -75l-9 -74l-82 -74zM285 931l11 112l84 74l65 -74l-11 -112l-82 -75zM354 521l82 75h74l67 -75l-82 -74h-74z M385 819l82 75h75l67 -75l-82 -74h-75zM516 298l13 113l82 75l67 -75l-13 -113l-82 -75zM551 633l9 74l82 75l67 -75l-9 -74l-82 -74zM583 931l11 112l84 74l65 -74l-11 -112l-82 -75zM652 519l82 75h74l67 -75l-82 -74h-74zM683 819l82 75h75l67 -75l-82 -74h-75z" />
<glyph unicode="$" d="M30 93l154 56h447l41 -149h-558q-73 19 -84 93zM97 726l50 484l143 -56l-37 -353l-125 -112zM153 1247q26 74 102 94h594q73 -19 84 -94l-155 -55h-482zM164 670l84 75h484l65 -75l-82 -74h-484zM339 -149l9 93h149l-9 -93l-82 -74zM376 205l35 335h149l-35 -335h-149z M439 801l36 335h149l-36 -335h-149zM501 1396l11 93l82 75l67 -75l-11 -93h-149zM668 149l41 391l123 112l34 -38l-54 -521q-26 -74 -103 -93z" />
<glyph unicode="%" d="M28 74l346 578h84l-20 -201l-269 -451q-112 0 -141 74zM48 987l25 223l143 -56l-13 -111l-71 -149q-73 19 -84 93zM76 1247q26 74 103 94h223l-71 -149h-111zM169 894l71 149h112l143 -56q-26 -74 -102 -93h-224zM357 1080l12 112l70 149q73 -19 84 -94l-24 -223zM439 93 l23 224l143 -56l-11 -112l-71 -149q-73 19 -84 93zM467 354q26 74 103 93h223l-72 -149h-112zM503 689l22 201l268 451q112 0 142 -75l-349 -577h-83zM560 0l71 149h112l143 -56q-26 -74 -102 -93h-224zM747 186l11 112l72 149q73 -19 84 -93l-24 -224z" />
<glyph unicode="&#x26;" d="M35 93l155 56h596l100 -112l-41 -37h-726q-73 19 -84 93zM39 130l52 484l41 38l99 -112l-36 -354zM171 670l82 75h484l67 -75l-82 -74h-484zM184 801l36 335l143 -56l-22 -205l-123 -112zM223 1173q26 74 103 93h409l-70 -149h-298zM653 -56l2 19h149l-9 -93l-41 -38z M676 875l26 242l71 149q73 -19 83 -93l-39 -372l-41 -38zM685 242l30 298l125 112l33 -38l-44 -428h-94z" />
<glyph unicode="'" d="M439 1043l32 298h149l-32 -298l-82 -75z" />
<glyph unicode="(" d="M39 186l45 428l41 38l100 -112l-41 -391l-61 -56zM97 726l44 428l103 93l50 -55l-41 -391l-125 -112zM140 74l82 75h204l67 -75l-82 -74h-204zM264 1266l82 75h205l67 -75l-82 -74h-205z" />
<glyph unicode=")" d="M307 74l82 75h205l67 -75l-82 -74h-205zM432 1266l82 75h205l67 -75l-82 -74h-205zM631 149l41 391l123 112l34 -38l-45 -428l-103 -93zM700 801l41 391l61 55l84 -93l-44 -428l-43 -37z" />
<glyph unicode="*" d="M155 493l39 103l136 74l-120 75l-18 102l106 28l123 -74l15 149l82 74l67 -74l-15 -149l137 74l99 -28l-37 -102l-138 -75l121 -74l17 -103l-104 -28l-123 75l-15 -149l-84 -74l-65 74l15 149l-138 -75z" />
<glyph unicode="+" d="M164 670l84 75h167l17 167l82 75l67 -75l-17 -167h168l65 -75l-82 -74h-168l-16 -168l-82 -74l-67 74l16 168h-167z" />
<glyph unicode="," d="M357 -149l32 298h149l-32 -298l-82 -74z" />
<glyph unicode="-" d="M164 670l84 75h484l65 -75l-82 -74h-484z" />
<glyph unicode="." d="M367 0l17 149h148l-16 -149h-149z" />
<glyph unicode="/" d="M28 74l346 578h84l-20 -201l-269 -451q-112 0 -141 74zM503 689l22 201l268 451q112 0 142 -75l-349 -577h-83z" />
<glyph unicode="0" d="M30 93l154 56h447l41 -149h-558q-73 19 -84 93zM34 130l50 484l41 38l100 -112l-37 -354zM97 726l50 484l143 -56l-37 -353l-125 -112zM153 1247q26 74 102 94h557l-71 -149h-445zM668 149l41 391l123 112l34 -38l-54 -521q-26 -74 -103 -93zM737 801l41 391l71 149 q73 -19 84 -94l-54 -521l-43 -37z" />
<glyph unicode="1" d="M668 149l41 391l123 112l34 -38l-54 -521q-26 -74 -103 -93zM737 801l41 391l71 149q73 -19 84 -94l-54 -521l-43 -37z" />
<glyph unicode="2" d="M30 93l154 56h503l41 -149h-614q-73 19 -84 93zM34 130l50 484l41 38l100 -112l-37 -354zM153 1247q26 74 102 94h557l-71 -149h-445zM164 670l84 75h484l65 -75l-82 -74h-484zM737 801l41 391l71 149q73 -19 84 -94l-54 -521l-43 -37z" />
<glyph unicode="3" d="M30 93l154 56h447l41 -149h-558q-73 19 -84 93zM153 1247q26 74 102 94h557l-71 -149h-445zM164 670l84 75h484l65 -75l-82 -74h-484zM668 149l41 391l123 112l34 -38l-54 -521q-26 -74 -103 -93zM737 801l41 391l71 149q73 -19 84 -94l-54 -521l-43 -37z" />
<glyph unicode="4" d="M97 726l56 540l143 -56l-43 -409l-125 -112zM164 670l84 75h484l65 -75l-82 -74h-484zM668 149l41 391l123 112l34 -38l-54 -521q-26 -74 -103 -93zM737 801l41 391l71 149q73 -19 84 -94l-54 -521l-43 -37z" />
<glyph unicode="5" d="M30 93l154 56h447l41 -149h-558q-73 19 -84 93zM97 726l50 484l143 -56l-37 -353l-125 -112zM153 1247q26 74 102 94h613l-71 -149h-501zM164 670l84 75h484l65 -75l-82 -74h-484zM668 149l41 391l123 112l34 -38l-54 -521q-26 -74 -103 -93z" />
<glyph unicode="6" d="M30 93l154 56h447l41 -149h-558q-73 19 -84 93zM34 130l50 484l41 38l100 -112l-37 -354zM97 726l50 484l143 -56l-37 -353l-125 -112zM153 1247q26 74 102 94h613l-71 -149h-501zM164 670l84 75h484l65 -75l-82 -74h-484zM668 149l41 391l123 112l34 -38l-54 -521 q-26 -74 -103 -93z" />
<glyph unicode="7" d="M97 726l50 484l143 -56l-37 -353l-125 -112zM153 1247q26 74 102 94h557l-71 -149h-445zM668 149l41 391l123 112l34 -38l-54 -521q-26 -74 -103 -93zM737 801l41 391l71 149q73 -19 84 -94l-54 -521l-43 -37z" />
<glyph unicode="8" d="M30 93l154 56h447l41 -149h-558q-73 19 -84 93zM34 130l50 484l41 38l100 -112l-37 -354zM97 726l50 484l143 -56l-37 -353l-125 -112zM153 1247q26 74 102 94h557l-71 -149h-445zM164 670l84 75h484l65 -75l-82 -74h-484zM668 149l41 391l123 112l34 -38l-54 -521 q-26 -74 -103 -93zM737 801l41 391l71 149q73 -19 84 -94l-54 -521l-43 -37z" />
<glyph unicode="9" d="M30 93l154 56h447l41 -149h-558q-73 19 -84 93zM97 726l50 484l143 -56l-37 -353l-125 -112zM153 1247q26 74 102 94h557l-71 -149h-445zM164 670l84 75h484l65 -75l-82 -74h-484zM668 149l41 391l123 112l34 -38l-54 -521q-26 -74 -103 -93zM737 801l41 391l71 149 q73 -19 84 -94l-54 -521l-43 -37z" />
<glyph unicode=":" d="M367 298l17 149h148l-16 -149h-149zM430 894l15 149h149l-15 -149h-149z" />
<glyph unicode=";" d="M335 -149l30 298h149l-30 -298l-84 -74zM443 894l17 149h149l-17 -149h-149z" />
<glyph unicode="&#x3c;" d="M199 652h205l266 -300l-63 -73h-75zM203 689l411 372h75l48 -72l-329 -300h-205z" />
<glyph unicode="=" d="M149 519l82 75h484l67 -75l-82 -74h-484zM181 819l82 75h484l67 -75l-82 -74h-484z" />
<glyph unicode="&#x3e;" d="M168 352l329 300h205l-412 -373h-74zM235 989l63 72h74l334 -372h-205z" />
<glyph unicode="?" d="M20 0l15 149h149l-15 -149h-149zM50 298l34 316l41 38l100 -112l-26 -242h-149zM153 1247q26 74 102 94h557l-71 -149h-445zM164 670l84 75h484l65 -75l-82 -74h-484zM737 801l41 391l71 149q73 -19 84 -94l-54 -521l-43 -37z" />
<glyph unicode="@" d="M30 93l154 56h447l41 -149h-558q-73 19 -84 93zM34 130l50 484l41 38l100 -112l-37 -354zM97 726l50 484l143 -56l-37 -353l-125 -112zM153 1247q26 74 102 94h557l-71 -149h-445zM359 389l155 58h149l39 -149l-261 -2q-73 19 -82 93zM363 428l19 186l41 38l100 -112 l-5 -56zM395 726l18 186l144 -56l-6 -55l-125 -112zM417 951q26 74 104 93l203 -1l-15 -149h-149zM700 447l9 93l123 112l34 -38l-23 -223q-28 -74 -104 -93zM737 801l41 391l71 149q73 -19 84 -94l-54 -521l-43 -37z" />
<glyph unicode="A" d="M30 93l54 521l41 38l100 -112l-41 -391l-70 -149q-73 19 -84 93zM97 726l50 484l143 -56l-37 -353l-125 -112zM153 1247q26 74 102 94h557l-71 -149h-445zM164 670l84 75h484l65 -75l-82 -74h-484zM668 149l41 391l123 112l34 -38l-54 -521q-26 -74 -103 -93zM737 801 l41 391l71 149q73 -19 84 -94l-54 -521l-43 -37z" />
<glyph unicode="B" d="M20 0l10 93l154 56h445l67 -75l-82 -74h-594zM34 130l50 484l41 38l100 -112l-37 -354zM97 726l50 484l143 -56l-37 -353l-125 -112zM151 1247l9 94h596l67 -75l-82 -74h-447zM164 670l84 75h484l65 -75l-82 -74h-484zM668 149l41 391l123 112l34 -38l-45 -428l-102 -93z M737 801l41 391l62 55l83 -93l-44 -428l-43 -37z" />
<glyph unicode="C" d="M30 93l154 56h503l41 -149h-614q-73 19 -84 93zM34 130l50 484l41 38l100 -112l-37 -354zM97 726l50 484l143 -56l-37 -353l-125 -112zM153 1247q26 74 102 94h613l-71 -149h-501z" />
<glyph unicode="D" d="M20 0l10 93l154 56h445l67 -75l-82 -74h-594zM34 130l50 484l41 38l100 -112l-37 -354zM97 726l50 484l143 -56l-37 -353l-125 -112zM151 1247l9 94h596l67 -75l-82 -74h-447zM668 149l41 391l123 112l34 -38l-45 -428l-102 -93zM737 801l41 391l62 55l83 -93l-44 -428 l-43 -37z" />
<glyph unicode="E" d="M30 93l154 56h503l41 -149h-614q-73 19 -84 93zM34 130l50 484l41 38l100 -112l-37 -354zM97 726l50 484l143 -56l-37 -353l-125 -112zM153 1247q26 74 102 94h613l-71 -149h-501zM164 670l84 75h484l65 -75l-82 -74h-484z" />
<glyph unicode="F" d="M30 93l54 521l41 38l100 -112l-41 -391l-70 -149q-73 19 -84 93zM97 726l50 484l143 -56l-37 -353l-125 -112zM153 1247q26 74 102 94h613l-71 -149h-501zM164 670l84 75h484l65 -75l-82 -74h-484z" />
<glyph unicode="G" d="M30 93l154 56h447l41 -149h-558q-73 19 -84 93zM34 130l50 484l41 38l100 -112l-37 -354zM97 726l50 484l143 -56l-37 -353l-125 -112zM153 1247q26 74 102 94h613l-71 -149h-501zM480 670l84 75h168l65 -75l-82 -74h-168zM668 149l41 391l123 112l34 -38l-54 -521 q-26 -74 -103 -93z" />
<glyph unicode="H" d="M30 93l54 521l41 38l100 -112l-41 -391l-70 -149q-73 19 -84 93zM95 707l54 522q26 74 102 93l41 -149l-41 -391l-124 -112zM164 670l84 75h484l65 -75l-82 -74h-484zM668 149l41 391l123 112l34 -38l-54 -521q-26 -74 -103 -93zM737 801l41 391l71 149q73 -19 84 -94 l-54 -521l-43 -37z" />
<glyph unicode="I" d="M335 168l41 391l123 111l33 -37l-54 -521q-28 -74 -104 -93zM402 801l41 391l71 149q73 -19 84 -94l-56 -521l-41 -37z" />
<glyph unicode="J" d="M30 93l154 56h447l41 -149h-558q-73 19 -84 93zM34 130l50 484l41 38l100 -112l-37 -354zM668 149l41 391l123 112l34 -38l-54 -521q-26 -74 -103 -93zM737 801l41 391l71 149q73 -19 84 -94l-54 -521l-43 -37z" />
<glyph unicode="K" d="M30 93l54 521l41 38l100 -112l-41 -391l-70 -149q-73 19 -84 93zM97 726l54 521q26 74 102 94l41 -149l-41 -391l-125 -112zM164 670l84 75h484l65 -75l-82 -74h-484zM289 782l11 112l493 447q112 0 142 -75l-535 -484h-111zM668 149l41 391l123 112l34 -38l-54 -521 q-26 -74 -103 -93z" />
<glyph unicode="L" d="M30 93l54 521l41 38l100 -112l-41 -391l-70 -149q-73 19 -84 93zM97 726l54 521q26 74 102 94l41 -149l-41 -391l-125 -112zM151 0l71 149h446l144 -56q-26 -74 -103 -93h-558z" />
<glyph unicode="M" d="M30 93l54 521l41 38l100 -112l-41 -391l-70 -149q-73 19 -84 93zM97 726l50 484l143 -56l-37 -353l-125 -112zM153 1247q26 74 102 94h557l-71 -149h-445zM413 726l45 428h149l-45 -428l-84 -74zM668 149l41 391l123 112l34 -38l-54 -521q-26 -74 -103 -93zM737 801 l41 391l71 149q73 -19 84 -94l-54 -521l-43 -37z" />
<glyph unicode="N" d="M30 93l56 521l41 38l98 -112l-41 -391l-70 -149q-73 19 -84 93zM95 707l54 522q26 74 102 93l41 -149l-41 -391l-123 -112zM318 1061l12 112h111l266 -298l-9 -93h-130zM668 149l41 391l125 112l34 -38l-56 -521q-26 -74 -103 -93zM735 782l41 391l71 149q73 -19 84 -93 l-54 -522l-41 -37z" />
<glyph unicode="O" d="M39 186l45 428l41 38l100 -112l-41 -391l-61 -56zM97 726l44 428l103 93l50 -55l-41 -391l-125 -112zM140 74l82 75h409l67 -75l-82 -74h-409zM264 1266l82 75h410l67 -75l-82 -74h-410zM668 149l41 391l123 112l34 -38l-45 -428l-102 -93zM737 801l41 391l62 55l83 -93 l-44 -428l-43 -37z" />
<glyph unicode="P" d="M30 93l54 521l41 38l100 -112l-41 -391l-70 -149q-73 19 -84 93zM97 726l50 484l143 -56l-37 -353l-125 -112zM151 1247l9 94h596l67 -75l-82 -74h-447zM164 670l84 75h484l65 -75l-82 -74h-484zM737 801l41 391l62 55l83 -93l-44 -428l-43 -37z" />
<glyph unicode="Q" d="M30 93l154 56h317l134 -149h-521q-73 19 -84 93zM34 130l52 484l41 38l98 -112l-37 -354zM97 726l50 484l143 -56l-37 -353l-123 -112zM153 1247q26 74 104 94h557l-73 -149h-445zM490 223l13 112h111l216 -242l-11 -112h-112zM687 317l22 223l125 112l34 -38l-49 -446z M737 801l41 391l73 149q71 -19 82 -94l-54 -521l-41 -37z" />
<glyph unicode="R" d="M30 93l54 521l41 38l100 -112l-41 -391l-70 -149q-73 19 -84 93zM97 726l50 484l143 -56l-37 -353l-125 -112zM153 1247q26 74 102 94h557l-71 -149h-445zM164 670l84 75h484l65 -75l-82 -74h-484zM253 447l11 112h112l434 -485q-45 -74 -157 -74zM737 801l41 391l71 149 q73 -19 84 -94l-54 -521l-43 -37z" />
<glyph unicode="S" d="M30 93l154 56h447l41 -149h-558q-73 19 -84 93zM97 726l50 484l143 -56l-37 -353l-125 -112zM153 1247q26 74 102 94h594q73 -19 84 -94l-155 -55h-482zM164 670l84 75h484l65 -75l-82 -74h-484zM668 149l41 391l123 112l34 -38l-54 -521q-26 -74 -103 -93z" />
<glyph unicode="T" d="M153 1247q26 74 102 94h594q73 -19 84 -94l-155 -55h-482zM352 149l45 428l81 75l68 -75l-51 -484q-26 -74 -102 -93zM417 763l41 391h149l-41 -391l-84 -74z" />
<glyph unicode="U" d="M30 93l154 56h447l41 -149h-558q-73 19 -84 93zM34 130l50 484l41 38l100 -112l-37 -354zM95 707l54 522q26 74 102 93l41 -149l-41 -391l-124 -112zM668 149l41 391l123 112l34 -38l-54 -521q-26 -74 -103 -93zM737 801l41 391l71 149q73 -19 84 -94l-54 -521l-43 -37z " />
<glyph unicode="V" d="M71 484l11 112l43 37l98 -112l192 -298l-22 -223zM95 707l54 522q26 74 102 93l41 -149l-41 -391l-123 -112zM430 0l22 223l255 298l125 112l32 -37l-11 -112zM735 782l41 391l71 149q73 -19 84 -93l-54 -522l-41 -37z" />
<glyph unicode="W" d="M32 93l154 56h445l41 -149h-557q-73 19 -83 93zM34 130l50 484l41 38l100 -112l-37 -354zM97 726l54 521q26 74 102 94l41 -149l-41 -391l-125 -112zM356 186l44 428l82 75l67 -75l-44 -428h-149zM668 149l41 391l123 112l34 -38l-54 -521q-26 -74 -103 -93zM737 801 l41 391l71 149q73 -19 84 -94l-54 -521l-43 -37z" />
<glyph unicode="X" d="M28 74l346 578h84l-20 -201l-269 -451q-112 0 -141 74zM155 1266q45 74 156 75l175 -453l-22 -199h-84zM477 451l20 201h84l227 -578q-45 -74 -156 -74zM503 689l22 201l268 451q112 0 142 -75l-349 -577h-83z" />
<glyph unicode="Y" d="M30 93l154 56h447l41 -149h-558q-73 19 -84 93zM97 726l56 540l143 -56l-43 -409l-125 -112zM164 670l84 75h484l65 -75l-82 -74h-484zM668 149l41 391l123 112l34 -38l-54 -521q-26 -74 -103 -93zM737 801l41 391l71 149q73 -19 84 -94l-54 -521l-43 -37z" />
<glyph unicode="Z" d="M28 74l357 578h112l-11 -112l-317 -540q-112 0 -141 74zM153 1247q26 74 102 94h501l-89 -149h-371zM207 0l89 149h391l41 -149h-521zM482 689l13 112l298 540q112 0 142 -75l-341 -577h-112z" />
<glyph unicode="[" d="M32 93l154 56h129l100 -112l-41 -37h-259q-73 19 -83 93zM34 130l50 484l41 38l100 -112l-37 -354zM97 726l50 484l143 -56l-37 -353l-125 -112zM153 1247q26 74 102 94h259l33 -38l-123 -111h-128z" />
<glyph unicode="\" d="M155 1266q45 74 156 75l175 -453l-22 -199h-84zM477 451l20 201h84l227 -578q-45 -74 -156 -74z" />
<glyph unicode="]" d="M415 37l123 112h93l41 -149h-223zM547 1303l41 38h224l-71 -149h-93zM668 149l41 391l123 112l34 -38l-54 -521q-26 -74 -103 -93zM737 801l41 391l71 149q73 -19 84 -94l-54 -521l-43 -37z" />
<glyph unicode="^" d="M91 894l8 74l411 373l-22 -205l-330 -298zM525 1136l21 205l333 -373l-8 -74l-78 -56z" />
<glyph unicode="_" d="M61 93l155 56h482l144 -56q-28 -74 -105 -93h-594q-73 19 -82 93z" />
<glyph unicode="`" d="M352 1303l26 75h74l216 -242l-7 -75l-76 -18z" />
<glyph unicode="a" d="M30 93l54 521l41 38l100 -112l-41 -391l-70 -149q-73 19 -84 93zM97 726l50 484l143 -56l-37 -353l-125 -112zM153 1247q26 74 102 94h557l-71 -149h-445zM164 670l84 75h484l65 -75l-82 -74h-484zM668 149l41 391l123 112l34 -38l-54 -521q-26 -74 -103 -93zM737 801 l41 391l71 149q73 -19 84 -94l-54 -521l-43 -37z" />
<glyph unicode="b" d="M20 0l10 93l154 56h445l67 -75l-82 -74h-594zM34 130l50 484l41 38l100 -112l-37 -354zM97 726l50 484l143 -56l-37 -353l-125 -112zM151 1247l9 94h596l67 -75l-82 -74h-447zM164 670l84 75h484l65 -75l-82 -74h-484zM668 149l41 391l123 112l34 -38l-45 -428l-102 -93z M737 801l41 391l62 55l83 -93l-44 -428l-43 -37z" />
<glyph unicode="c" d="M30 93l154 56h503l41 -149h-614q-73 19 -84 93zM34 130l50 484l41 38l100 -112l-37 -354zM97 726l50 484l143 -56l-37 -353l-125 -112zM153 1247q26 74 102 94h613l-71 -149h-501z" />
<glyph unicode="d" d="M20 0l10 93l154 56h445l67 -75l-82 -74h-594zM34 130l50 484l41 38l100 -112l-37 -354zM97 726l50 484l143 -56l-37 -353l-125 -112zM151 1247l9 94h596l67 -75l-82 -74h-447zM668 149l41 391l123 112l34 -38l-45 -428l-102 -93zM737 801l41 391l62 55l83 -93l-44 -428 l-43 -37z" />
<glyph unicode="e" d="M30 93l154 56h503l41 -149h-614q-73 19 -84 93zM34 130l50 484l41 38l100 -112l-37 -354zM97 726l50 484l143 -56l-37 -353l-125 -112zM153 1247q26 74 102 94h613l-71 -149h-501zM164 670l84 75h484l65 -75l-82 -74h-484z" />
<glyph unicode="f" d="M30 93l54 521l41 38l100 -112l-41 -391l-70 -149q-73 19 -84 93zM97 726l50 484l143 -56l-37 -353l-125 -112zM153 1247q26 74 102 94h613l-71 -149h-501zM164 670l84 75h484l65 -75l-82 -74h-484z" />
<glyph unicode="g" d="M30 93l154 56h447l41 -149h-558q-73 19 -84 93zM34 130l50 484l41 38l100 -112l-37 -354zM97 726l50 484l143 -56l-37 -353l-125 -112zM153 1247q26 74 102 94h613l-71 -149h-501zM480 670l84 75h168l65 -75l-82 -74h-168zM668 149l41 391l123 112l34 -38l-54 -521 q-26 -74 -103 -93z" />
<glyph unicode="h" d="M30 93l54 521l41 38l100 -112l-41 -391l-70 -149q-73 19 -84 93zM95 707l54 522q26 74 102 93l41 -149l-41 -391l-124 -112zM164 670l84 75h484l65 -75l-82 -74h-484zM668 149l41 391l123 112l34 -38l-54 -521q-26 -74 -103 -93zM737 801l41 391l71 149q73 -19 84 -94 l-54 -521l-43 -37z" />
<glyph unicode="i" d="M335 168l41 391l123 111l33 -37l-54 -521q-28 -74 -104 -93zM402 801l41 391l71 149q73 -19 84 -94l-56 -521l-41 -37z" />
<glyph unicode="j" d="M30 93l154 56h447l41 -149h-558q-73 19 -84 93zM34 130l50 484l41 38l100 -112l-37 -354zM668 149l41 391l123 112l34 -38l-54 -521q-26 -74 -103 -93zM737 801l41 391l71 149q73 -19 84 -94l-54 -521l-43 -37z" />
<glyph unicode="k" d="M30 93l54 521l41 38l100 -112l-41 -391l-70 -149q-73 19 -84 93zM97 726l54 521q26 74 102 94l41 -149l-41 -391l-125 -112zM164 670l84 75h484l65 -75l-82 -74h-484zM289 782l11 112l493 447q112 0 142 -75l-535 -484h-111zM668 149l41 391l123 112l34 -38l-54 -521 q-26 -74 -103 -93z" />
<glyph unicode="l" d="M30 93l54 521l41 38l100 -112l-41 -391l-70 -149q-73 19 -84 93zM97 726l54 521q26 74 102 94l41 -149l-41 -391l-125 -112zM151 0l71 149h446l144 -56q-26 -74 -103 -93h-558z" />
<glyph unicode="m" d="M30 93l54 521l41 38l100 -112l-41 -391l-70 -149q-73 19 -84 93zM97 726l50 484l143 -56l-37 -353l-125 -112zM153 1247q26 74 102 94h557l-71 -149h-445zM413 726l45 428h149l-45 -428l-84 -74zM668 149l41 391l123 112l34 -38l-54 -521q-26 -74 -103 -93zM737 801 l41 391l71 149q73 -19 84 -94l-54 -521l-43 -37z" />
<glyph unicode="n" d="M30 93l56 521l41 38l98 -112l-41 -391l-70 -149q-73 19 -84 93zM95 707l54 522q26 74 102 93l41 -149l-41 -391l-123 -112zM318 1061l12 112h111l266 -298l-9 -93h-130zM668 149l41 391l125 112l34 -38l-56 -521q-26 -74 -103 -93zM735 782l41 391l71 149q73 -19 84 -93 l-54 -522l-41 -37z" />
<glyph unicode="o" d="M39 186l45 428l41 38l100 -112l-41 -391l-61 -56zM97 726l44 428l103 93l50 -55l-41 -391l-125 -112zM140 74l82 75h409l67 -75l-82 -74h-409zM264 1266l82 75h410l67 -75l-82 -74h-410zM668 149l41 391l123 112l34 -38l-45 -428l-102 -93zM737 801l41 391l62 55l83 -93 l-44 -428l-43 -37z" />
<glyph unicode="p" d="M30 93l54 521l41 38l100 -112l-41 -391l-70 -149q-73 19 -84 93zM97 726l50 484l143 -56l-37 -353l-125 -112zM151 1247l9 94h596l67 -75l-82 -74h-447zM164 670l84 75h484l65 -75l-82 -74h-484zM737 801l41 391l62 55l83 -93l-44 -428l-43 -37z" />
<glyph unicode="q" d="M30 93l154 56h317l134 -149h-521q-73 19 -84 93zM34 130l52 484l41 38l98 -112l-37 -354zM97 726l50 484l143 -56l-37 -353l-123 -112zM153 1247q26 74 104 94h557l-73 -149h-445zM490 223l13 112h111l216 -242l-11 -112h-112zM687 317l22 223l125 112l34 -38l-49 -446z M737 801l41 391l73 149q71 -19 82 -94l-54 -521l-41 -37z" />
<glyph unicode="r" d="M30 93l54 521l41 38l100 -112l-41 -391l-70 -149q-73 19 -84 93zM97 726l50 484l143 -56l-37 -353l-125 -112zM153 1247q26 74 102 94h557l-71 -149h-445zM164 670l84 75h484l65 -75l-82 -74h-484zM253 447l11 112h112l434 -485q-45 -74 -157 -74zM737 801l41 391l71 149 q73 -19 84 -94l-54 -521l-43 -37z" />
<glyph unicode="s" d="M30 93l154 56h447l41 -149h-558q-73 19 -84 93zM97 726l50 484l143 -56l-37 -353l-125 -112zM153 1247q26 74 102 94h594q73 -19 84 -94l-155 -55h-482zM164 670l84 75h484l65 -75l-82 -74h-484zM668 149l41 391l123 112l34 -38l-54 -521q-26 -74 -103 -93z" />
<glyph unicode="t" d="M153 1247q26 74 102 94h594q73 -19 84 -94l-155 -55h-482zM352 149l45 428l81 75l68 -75l-51 -484q-26 -74 -102 -93zM417 763l41 391h149l-41 -391l-84 -74z" />
<glyph unicode="u" d="M30 93l154 56h447l41 -149h-558q-73 19 -84 93zM34 130l50 484l41 38l100 -112l-37 -354zM95 707l54 522q26 74 102 93l41 -149l-41 -391l-124 -112zM668 149l41 391l123 112l34 -38l-54 -521q-26 -74 -103 -93zM737 801l41 391l71 149q73 -19 84 -94l-54 -521l-43 -37z " />
<glyph unicode="v" d="M71 484l11 112l43 37l98 -112l192 -298l-22 -223zM95 707l54 522q26 74 102 93l41 -149l-41 -391l-123 -112zM430 0l22 223l255 298l125 112l32 -37l-11 -112zM735 782l41 391l71 149q73 -19 84 -93l-54 -522l-41 -37z" />
<glyph unicode="w" d="M32 93l154 56h445l41 -149h-557q-73 19 -83 93zM34 130l50 484l41 38l100 -112l-37 -354zM97 726l54 521q26 74 102 94l41 -149l-41 -391l-125 -112zM356 186l44 428l82 75l67 -75l-44 -428h-149zM668 149l41 391l123 112l34 -38l-54 -521q-26 -74 -103 -93zM737 801 l41 391l71 149q73 -19 84 -94l-54 -521l-43 -37z" />
<glyph unicode="x" d="M28 74l346 578h84l-20 -201l-269 -451q-112 0 -141 74zM155 1266q45 74 156 75l175 -453l-22 -199h-84zM477 451l20 201h84l227 -578q-45 -74 -156 -74zM503 689l22 201l268 451q112 0 142 -75l-349 -577h-83z" />
<glyph unicode="y" d="M30 93l154 56h447l41 -149h-558q-73 19 -84 93zM97 726l56 540l143 -56l-43 -409l-125 -112zM164 670l84 75h484l65 -75l-82 -74h-484zM668 149l41 391l123 112l34 -38l-54 -521q-26 -74 -103 -93zM737 801l41 391l71 149q73 -19 84 -94l-54 -521l-43 -37z" />
<glyph unicode="z" d="M28 74l357 578h112l-11 -112l-317 -540q-112 0 -141 74zM153 1247q26 74 102 94h501l-89 -149h-371zM207 0l89 149h391l41 -149h-521zM482 689l13 112l298 540q112 0 142 -75l-341 -577h-112z" />
<glyph unicode="{" d="M71 670l84 75h130l65 -75l-82 -74h-130zM236 93l155 56h128l101 -112l-41 -37h-259q-73 19 -84 93zM238 130l43 410l123 112l34 -38l-45 -428zM309 801l43 409l143 -56l-44 -428l-43 -37zM357 1247q26 74 103 94h259l33 -38l-123 -111h-128z" />
<glyph unicode="|" d="M35 149l110 1043l71 149q73 -19 84 -94l-121 -1154q-26 -74 -103 -93z" />
<glyph unicode="}" d="M99 37l123 112h128l143 -56q-26 -74 -102 -93h-259zM231 1303l41 38h259q73 -19 83 -94l-154 -55h-129zM356 186l44 428l41 38l101 -112l-43 -410zM413 726l45 428l155 56l-43 -409l-125 -112zM499 670l84 75h130l65 -75l-82 -74h-130z" />
<glyph unicode="~" d="M80 817l82 75h74l67 -75l-81 -74h-75zM240 931l82 74h75l67 -74l-82 -75h-75zM378 819l82 75h74l67 -75l-82 -74h-74zM514 689l82 74h74l67 -74l-84 -75h-74zM676 819l82 75h74l67 -75l-82 -74h-74z" />
<glyph unicode="&#xa0;" />
<glyph unicode="&#xa9;" d="M-43 93l153 56h558l41 -149h-670q-71 19 -82 93zM-39 130l112 1080l143 -56l-102 -968zM78 1247q26 74 103 94h668l-71 -149h-556zM210 391l54 521l144 -56l-43 -409l-73 -149q-73 19 -82 93zM268 950q26 74 103 93h353l-71 -149h-242zM330 298l72 149h112l143 -56 q-28 -74 -104 -93h-223zM706 149l109 1043l71 149q73 -19 84 -94l-121 -1154q-26 -74 -102 -93z" />
<glyph unicode="&#xad;" d="M164 670l84 75h484l65 -75l-82 -74h-484z" />
<glyph unicode="&#x2000;" horiz-adv-x="782" />
<glyph unicode="&#x2001;" horiz-adv-x="1564" />
<glyph unicode="&#x2002;" horiz-adv-x="782" />
<glyph unicode="&#x2003;" horiz-adv-x="1564" />
<glyph unicode="&#x2004;" horiz-adv-x="521" />
<glyph unicode="&#x2005;" horiz-adv-x="391" />
<glyph unicode="&#x2006;" horiz-adv-x="260" />
<glyph unicode="&#x2007;" horiz-adv-x="260" />
<glyph unicode="&#x2008;" horiz-adv-x="195" />
<glyph unicode="&#x2009;" horiz-adv-x="312" />
<glyph unicode="&#x200a;" horiz-adv-x="86" />
<glyph unicode="&#x2010;" d="M164 670l84 75h484l65 -75l-82 -74h-484z" />
<glyph unicode="&#x2011;" d="M164 670l84 75h484l65 -75l-82 -74h-484z" />
<glyph unicode="&#x2012;" d="M164 670l84 75h484l65 -75l-82 -74h-484z" />
<glyph unicode="&#x2013;" d="M71 670l84 75h670l65 -75l-82 -74h-670z" />
<glyph unicode="&#x2014;" d="M34 670l83 75h745l65 -75l-82 -74h-744z" />
<glyph unicode="&#x2018;" d="M432 968l30 298l84 75l65 -75l-30 -298h-149z" />
<glyph unicode="&#x2019;" d="M439 1043l32 298h149l-32 -298l-82 -75z" />
<glyph unicode="&#x201c;" d="M283 970l30 298l84 74l65 -74l-30 -298h-149zM581 968l30 298l83 75l66 -75l-30 -298h-149z" />
<glyph unicode="&#x201d;" d="M290 1043l32 298h149l-32 -298l-82 -75zM590 1044l32 298h149l-32 -298l-82 -74z" />
<glyph unicode="&#x2022;" d="M203 680q11 112 98.5 191t199.5 79t182.5 -79.5t59.5 -190.5q-13 -112 -100.5 -191t-199.5 -79t-182.5 79t-57.5 191z" />
<glyph unicode="&#x202f;" horiz-adv-x="312" />
<glyph unicode="&#x205f;" horiz-adv-x="391" />
<glyph unicode="&#xe000;" horiz-adv-x="1340" d="M0 0v1341h1341v-1341h-1341z" />
</font>
</defs>
</svg>
