<?xml version="1.0" standalone="no"?>
<!DOCTYPE svg PUBLIC "-//W3C//DTD SVG 1.1//EN" "http://www.w3.org/Graphics/SVG/1.1/DTD/svg11.dtd" >
<svg xmlns="http://www.w3.org/2000/svg">
<metadata></metadata>
<defs>
<font id="noticenotice" horiz-adv-x="1822" >
<font-face units-per-em="2048" ascent="1638" descent="-410" />
<missing-glyph horiz-adv-x="500" />
<glyph horiz-adv-x="2048" />
<glyph horiz-adv-x="2048" />
<glyph unicode="&#xd;" horiz-adv-x="2048" />
<glyph unicode=" " />
<glyph unicode="!" d="M92 258v1122q0 107 75.5 182.5t182.5 75.5h1123q107 0 182.5 -75.5t75.5 -182.5v-1122q0 -107 -75.5 -182.5t-182.5 -75.5h-1123q-107 0 -182.5 75.5t-75.5 182.5zM379 338q0 -20 16 -35.5t45 -15.5h942q29 0 45.5 15.5t16.5 35.5t-16.5 35.5t-45.5 15.5h-942 q-29 0 -45 -15.5t-16 -35.5zM379 522q0 -20 16 -35.5t45 -15.5h942q29 0 45.5 15.5t16.5 35.5t-16.5 35.5t-45.5 15.5h-942q-29 0 -45 -15.5t-16 -35.5zM502 1180h106v-504h150v672h-131q-11 -35 -47 -52.5t-78 -21.5v-94zM952 836q0 -75 48 -120.5t135 -45.5 q89 0 137.5 45.5t48.5 120.5v348q0 78 -48.5 124t-137.5 46q-88 0 -135.5 -46t-47.5 -124v-348zM1102 825q0 -41 33 -41q39 0 39 41v373q0 19 -11 30t-26 11q-14 0 -24.5 -11t-10.5 -30v-373z" />
<glyph unicode="&#x22;" d="M92 258v1122q0 107 75.5 182.5t182.5 75.5h1123q107 0 182.5 -75.5t75.5 -182.5v-1122q0 -107 -75.5 -182.5t-182.5 -75.5h-1123q-107 0 -182.5 75.5t-75.5 182.5zM406 819q0 -132 66.5 -243.5t181 -176.5t249.5 -65q199 0 361 149q12 9 12 21q0 9 -8 16.5t-17 7.5 q-10 0 -18 -8q-69 -66 -155 -101.5t-175 -35.5q-175 0 -301 123q-12 12 -12 31v233q0 11 7.5 19t20.5 8h762q25 0 25 26q0 128 -68 239t-184 177t-250 66q-101 0 -193 -38.5t-158.5 -103.5t-106 -155t-39.5 -189zM590 872v234q0 19 12 31q130 118 301 118q165 0 303 -118 q15 -12 15 -31v-234q0 -11 -7.5 -18.5t-19.5 -7.5h-576q-13 0 -20.5 7.5t-7.5 18.5z" />
<glyph unicode="#" d="M92 258v1122q0 107 75.5 182.5t182.5 75.5h1123q107 0 182.5 -75.5t75.5 -182.5v-1122q0 -107 -75.5 -182.5t-182.5 -75.5h-1123q-107 0 -182.5 75.5t-75.5 182.5zM379 338q0 -20 16 -35.5t45 -15.5h942q29 0 45.5 15.5t16.5 35.5t-16.5 35.5t-45.5 15.5h-942 q-29 0 -45 -15.5t-16 -35.5zM379 522q0 -20 16 -35.5t45 -15.5h942q29 0 45.5 15.5t16.5 35.5t-16.5 35.5t-45.5 15.5h-942q-29 0 -45 -15.5t-16 -35.5zM737 846q0 -168 183 -168q104 0 145 51.5t41 157.5q0 76 -22 109t-58 44q80 37 80 150q0 83 -47.5 120.5t-138.5 37.5 q-183 0 -183 -158v-43h142v43q0 22 10.5 34.5t25.5 12.5q14 0 24.5 -11.5t10.5 -33.5v-51q0 -51 -61 -51h-27v-113h21q75 0 75 -66v-73q0 -22 -12 -34.5t-28 -12.5t-27.5 12.5t-11.5 34.5v69h-142v-61z" />
<glyph unicode="$" d="M92 258v1122q0 107 75.5 182.5t182.5 75.5h1123q107 0 182.5 -75.5t75.5 -182.5v-1122q0 -107 -75.5 -182.5t-182.5 -75.5h-1123q-107 0 -182.5 75.5t-75.5 182.5zM379 338q0 -20 16 -35.5t45 -15.5h942q29 0 45.5 15.5t16.5 35.5t-16.5 35.5t-45.5 15.5h-942 q-29 0 -45 -15.5t-16 -35.5zM379 522q0 -20 16 -35.5t45 -15.5h942q29 0 45.5 15.5t16.5 35.5t-16.5 35.5t-45.5 15.5h-942q-29 0 -45 -15.5t-16 -35.5zM721 801h197v-125h149v125h49v125h-49v92h-149v-92h-46l105 424h-150l-106 -406v-143z" />
<glyph unicode="%" d="M92 258v1122q0 107 75.5 182.5t182.5 75.5h1123q107 0 182.5 -75.5t75.5 -182.5v-1122q0 -107 -75.5 -182.5t-182.5 -75.5h-1123q-107 0 -182.5 75.5t-75.5 182.5zM379 338q0 -20 16 -35.5t45 -15.5h942q29 0 45.5 15.5t16.5 35.5t-16.5 35.5t-45.5 15.5h-942 q-29 0 -45 -15.5t-16 -35.5zM379 522q0 -20 16 -35.5t45 -15.5h942q29 0 45.5 15.5t16.5 35.5t-16.5 35.5t-45.5 15.5h-942q-29 0 -45 -15.5t-16 -35.5zM735 846q0 -88 42.5 -129t129.5 -41q106 0 147.5 45.5t41.5 152.5v113q0 160 -156 160q-43 0 -78 -25v99h211v127h-338 v-363h127q0 23 12.5 36t28.5 13q17 0 30 -13t13 -36v-145q0 -23 -13 -36t-30 -13q-16 0 -28.5 13t-12.5 36v63h-127v-57z" />
<glyph unicode="&#x26;" d="M92 258v1122q0 107 75.5 182.5t182.5 75.5h1123q107 0 182.5 -75.5t75.5 -182.5v-1122q0 -107 -75.5 -182.5t-182.5 -75.5h-1123q-107 0 -182.5 75.5t-75.5 182.5zM379 338q0 -20 16 -35.5t45 -15.5h942q29 0 45.5 15.5t16.5 35.5t-16.5 35.5t-45.5 15.5h-942 q-29 0 -45 -15.5t-16 -35.5zM379 522q0 -20 16 -35.5t45 -15.5h942q29 0 45.5 15.5t16.5 35.5t-16.5 35.5t-45.5 15.5h-942q-29 0 -45 -15.5t-16 -35.5zM721 1221h244q-77 -145 -122.5 -287.5t-45.5 -237.5v-20h161v16q0 50 12 133.5t49.5 204.5t92.5 203v115h-391v-127z " />
<glyph unicode="'" d="M92 258v1122q0 107 75.5 182.5t182.5 75.5h1123q107 0 182.5 -75.5t75.5 -182.5v-1122q0 -107 -75.5 -182.5t-182.5 -75.5h-1123q-107 0 -182.5 75.5t-75.5 182.5zM236 287q0 -60 41.5 -102t101.5 -42h1065q60 0 101.5 42t41.5 102v1065q0 60 -41.5 101.5t-101.5 41.5 h-1065q-60 0 -101.5 -41.5t-41.5 -101.5v-1065zM406 819q0 99 39.5 189t106 155t158.5 103.5t193 38.5q134 0 250 -66t184 -177t68 -239q0 -26 -25 -26h-762q-13 0 -20.5 -8t-7.5 -19v-233q0 -19 12 -31q126 -123 301 -123q89 0 175 35.5t155 101.5q8 8 18 8q9 0 17 -7.5 t8 -16.5q0 -12 -12 -21q-162 -149 -361 -149q-135 0 -249.5 65t-181 176.5t-66.5 243.5zM590 872q0 -11 7.5 -18.5t20.5 -7.5h576q12 0 19.5 7.5t7.5 18.5v234q0 19 -15 31q-138 118 -303 118q-171 0 -301 -118q-12 -12 -12 -31v-234z" />
<glyph unicode="(" d="M92 258v1122q0 107 75.5 182.5t182.5 75.5h1123q107 0 182.5 -75.5t75.5 -182.5v-1122q0 -107 -75.5 -182.5t-182.5 -75.5h-1123q-107 0 -182.5 75.5t-75.5 182.5zM379 338q0 -20 16 -35.5t45 -15.5h942q29 0 45.5 15.5t16.5 35.5t-16.5 35.5t-45.5 15.5h-942 q-29 0 -45 -15.5t-16 -35.5zM379 522q0 -20 16 -35.5t45 -15.5h942q29 0 45.5 15.5t16.5 35.5t-16.5 35.5t-45.5 15.5h-942q-29 0 -45 -15.5t-16 -35.5zM721 1053q0 -80 30.5 -125t106.5 -45q31 0 49.5 7.5t34.5 29.5l2 -2v-74q0 -56 -41 -56q-22 0 -30.5 14t-8.5 42h-133 q0 -168 172 -168q88 0 135 44.5t47 121.5v340q0 77 -47.5 121.5t-134.5 44.5t-134.5 -44.5t-47.5 -121.5v-129zM868 1036q0 -41 35 -41q37 0 37 41v156q0 43 -37 43q-35 0 -35 -43v-156z" />
<glyph unicode=")" d="M92 258v1122q0 107 75.5 182.5t182.5 75.5h1123q107 0 182.5 -75.5t75.5 -182.5v-1122q0 -107 -75.5 -182.5t-182.5 -75.5h-1123q-107 0 -182.5 75.5t-75.5 182.5zM379 338q0 -20 16 -35.5t45 -15.5h942q29 0 45.5 15.5t16.5 35.5t-16.5 35.5t-45.5 15.5h-942 q-29 0 -45 -15.5t-16 -35.5zM379 522q0 -20 16 -35.5t45 -15.5h942q29 0 45.5 15.5t16.5 35.5t-16.5 35.5t-45.5 15.5h-942q-29 0 -45 -15.5t-16 -35.5z" />
<glyph unicode="*" d="M92 258v1122q0 107 75.5 182.5t182.5 75.5h1123q107 0 182.5 -75.5t75.5 -182.5v-1122q0 -107 -75.5 -182.5t-182.5 -75.5h-1123q-107 0 -182.5 75.5t-75.5 182.5zM379 338q0 -20 16 -35.5t45 -15.5h942q29 0 45.5 15.5t16.5 35.5t-16.5 35.5t-45.5 15.5h-942 q-29 0 -45 -15.5t-16 -35.5zM379 522q0 -20 16 -35.5t45 -15.5h942q29 0 45.5 15.5t16.5 35.5t-16.5 35.5t-45.5 15.5h-942q-29 0 -45 -15.5t-16 -35.5zM721 842q0 -76 48 -121t134 -45q88 0 135 44.5t47 121.5v55q0 30 -1.5 47t-8.5 36.5t-23 33t-42 24.5q71 30 71 101v45 q0 21 -1.5 36t-11 42t-26.5 44t-53 30.5t-86 13.5t-86 -13.5t-53 -30.5t-26.5 -44t-11 -42t-1.5 -36v-45q0 -29 18 -58t54 -43q-26 -11 -42 -24.5t-23 -33t-9 -37t-2 -46.5v-55zM870 831q0 -43 33 -43q35 0 35 43v107q0 41 -35 41q-33 0 -33 -41v-107zM870 1135 q0 -25 8.5 -34t24.5 -9q35 0 35 43v59q0 43 -35 43q-16 0 -24.5 -9t-8.5 -34v-59z" />
<glyph unicode="+" d="M92 258v1122q0 107 75.5 182.5t182.5 75.5h1123q107 0 182.5 -75.5t75.5 -182.5v-1122q0 -107 -75.5 -182.5t-182.5 -75.5h-1123q-107 0 -182.5 75.5t-75.5 182.5zM481 432q0 -60 43 -102.5t103 -42.5t102.5 42.5t42.5 102.5q0 70 -53 113v704q0 49 -27.5 76t-64.5 27 t-64.5 -27t-27.5 -76v-704q-54 -44 -54 -113zM492 432q0 -56 40 -95.5t95 -39.5t95 39.5t40 95.5q0 67 -53 107v710q0 45 -24.5 69.5t-57.5 24.5t-57.5 -24.5t-24.5 -69.5v-710q-53 -40 -53 -107zM502 432q0 66 53 103v714q0 39 21 61.5t51 22.5t50.5 -22.5t20.5 -61.5v-714 q54 -38 54 -103q0 -52 -36 -88.5t-89 -36.5t-89 36.5t-36 88.5zM565 535h123v714q0 35 -18 54.5t-43 19.5t-43.5 -19.5t-18.5 -54.5v-714zM852 383q0 -34 22.5 -60t77.5 -26t78 26t23 60v49h-82v-55q0 -25 -19 -25q-18 0 -18 25v153q0 27 18 27q19 0 19 -27v-36h82v32 q0 35 -23 60.5t-78 25.5t-77.5 -26t-22.5 -60v-143zM852 1141h82v61h-82v-61zM1083 621q0 -21 14.5 -35.5t35.5 -14.5t36 14.5t15 35.5t-15 36t-36 15t-35.5 -15t-14.5 -36zM1110 621q0 -10 7 -16.5t16 -6.5t15.5 6.5t6.5 16.5q0 22 -22 22q-9 0 -16 -6t-7 -16z" />
<glyph unicode="," d="M92 258v1122q0 107 75.5 182.5t182.5 75.5h1123q107 0 182.5 -75.5t75.5 -182.5v-1122q0 -107 -75.5 -182.5t-182.5 -75.5h-1123q-107 0 -182.5 75.5t-75.5 182.5zM236 287q0 -60 41 -102t102 -42h1065q60 0 101.5 42t41.5 102v1065q0 60 -41.5 101.5t-101.5 41.5h-1065 q-60 0 -101.5 -41.5t-41.5 -101.5v-1065zM424 596l135 78l-123 71l25 48l151 -88l199 114l-199 117l-151 -86l-25 45l123 72l-135 77l49 86l133 -77v141h53v-172l201 -113v228l-149 86l26 47l123 -72v156h101v-154l120 70l27 -47l-147 -84v-230l198 113v172h51v-143l138 79 l51 -86l-135 -79l120 -70l-26 -45l-150 84l-196 -115l196 -114l148 88l28 -48l-120 -71l135 -78l-49 -86l-140 80v-144h-51v175l-198 112v-231l147 -84l-25 -45l-122 67v-153h-101v155l-123 -69l-26 45l149 88v227l-201 -117v-170h-53v140l-133 -76z" />
<glyph unicode="-" d="M92 258v1122q0 107 75.5 182.5t182.5 75.5h1123q107 0 182.5 -75.5t75.5 -182.5v-1122q0 -107 -75.5 -182.5t-182.5 -75.5h-1123q-107 0 -182.5 75.5t-75.5 182.5zM236 287q0 -60 41.5 -102t101.5 -42h1065q60 0 101.5 42t41.5 102v1065q0 60 -41.5 101.5t-101.5 41.5 h-1065q-60 0 -101.5 -41.5t-41.5 -101.5v-1065zM481 432q0 69 54 113v704q0 49 27.5 76t64.5 27t64.5 -27t27.5 -76v-704q53 -43 53 -113q0 -60 -42.5 -102.5t-102.5 -42.5t-103 42.5t-43 102.5zM492 432q0 -56 40 -95.5t95 -39.5t95 39.5t40 95.5q0 67 -53 107v710 q0 45 -24.5 69.5t-57.5 24.5t-57.5 -24.5t-24.5 -69.5v-710q-53 -40 -53 -107zM502 432q0 66 53 103v714q0 39 21 61.5t51 22.5t50.5 -22.5t20.5 -61.5v-714q54 -38 54 -103q0 -52 -36 -88.5t-89 -36.5t-89 36.5t-36 88.5zM565 1079h123v170q0 35 -18 54.5t-43 19.5 t-43.5 -19.5t-18.5 -54.5v-170zM852 383v143q0 34 22.5 60t77.5 26t78 -25.5t23 -60.5v-32h-82v36q0 27 -19 27q-18 0 -18 -27v-153q0 -25 18 -25q19 0 19 25v55h82v-49q0 -34 -23 -60t-78 -26t-77.5 26t-22.5 60zM1083 621q0 21 14.5 36t35.5 15t36 -15t15 -36t-15 -35.5 t-36 -14.5t-35.5 14.5t-14.5 35.5zM1110 621q0 -10 7 -16.5t16 -6.5t15.5 6.5t6.5 16.5q0 22 -22 22q-9 0 -16 -6t-7 -16z" />
<glyph unicode="." d="M92 258v1122q0 107 75.5 182.5t182.5 75.5h1123q107 0 182.5 -75.5t75.5 -182.5v-1122q0 -107 -75.5 -182.5t-182.5 -75.5h-1123q-107 0 -182.5 75.5t-75.5 182.5zM236 287q0 -60 41 -102t102 -42h1065q60 0 101.5 42t41.5 102v1065q0 60 -41.5 101.5t-101.5 41.5h-1065 q-60 0 -101.5 -41.5t-41.5 -101.5v-1065zM399 989v365h709v-365q0 -141 -76.5 -230t-206.5 -89v-103q0 -110 58 -169.5t174 -59.5q11 0 17.5 -8.5t6.5 -18.5t-6.5 -17t-17.5 -7q-140 0 -211.5 74t-71.5 206v154h51q100 0 166 75t66 193v314h-606v-314q0 -118 65.5 -193 t165.5 -75h51v-154q0 -132 -71.5 -206t-210.5 -74q-11 0 -18 7t-7 17t7 18.5t18 8.5q116 0 173.5 59.5t57.5 169.5v103q-130 0 -206.5 89t-76.5 230zM1153 1102q0 -14 7.5 -21.5t17.5 -7.5t18 7.5t8 21.5v225q0 11 -8 19t-18 8t-17.5 -8t-7.5 -19v-225zM1249 313v605 q46 0 71.5 27.5t25.5 80.5v301q0 12 7.5 19.5t16.5 7.5q10 0 18.5 -8t8.5 -19v-303q0 -58 -27 -95t-70 -48v-568q0 -13 -8 -19.5t-18 -6.5t-17.5 6.5t-7.5 19.5zM1249 1102q0 -14 7.5 -21.5t17.5 -7.5t18 7.5t8 21.5v225q0 11 -8 19t-18 8t-17.5 -8t-7.5 -19v-225z" />
<glyph unicode="/" d="M92 258v1122q0 107 75.5 182.5t182.5 75.5h1123q107 0 182.5 -75.5t75.5 -182.5v-1122q0 -107 -75.5 -182.5t-182.5 -75.5h-1123q-107 0 -182.5 75.5t-75.5 182.5zM236 287q0 -60 41 -102t102 -42h1065q60 0 101.5 42t41.5 102v1065q0 60 -41.5 101.5t-101.5 41.5h-1065 q-60 0 -101.5 -41.5t-41.5 -101.5v-1065zM348 862q0 86 29.5 156t80 117t119.5 79t145 46t159 14q139 0 238.5 -29.5t207.5 -95.5v-174q-151 82 -276 82q-93 0 -161.5 -58.5t-68.5 -154.5q0 -97 69 -157t161 -60q157 0 276 73v-186q-101 -57 -200 -79.5t-246 -22.5 q-103 0 -197.5 29t-170 83.5t-120.5 142t-45 195.5zM373 862q0 -125 71.5 -224t186.5 -150.5t250 -51.5q237 0 419 96v127q-91 -57 -249 -57q-103 0 -178.5 66t-75.5 176t75.5 173.5t178.5 63.5q70 0 137 -17.5t112 -47.5v114q-190 119 -419 119q-138 0 -251 -41.5 t-185 -131t-72 -214.5zM465 694v244q0 67 39.5 111.5t107.5 44.5q71 0 116.5 -44.5t45.5 -111.5q0 -68 -45.5 -113t-116.5 -45q-16 0 -28 6v93q14 -7 28 -7q33 0 53.5 18t20.5 48q0 29 -20.5 46t-53.5 17q-21 0 -39 -18t-18 -45v-326q-36 0 -63 25.5t-27 56.5zM1176 854v88 h294v-88h-69v-123h-158v123h-67zM1198 879h70v-125h110v125h70v41h-250v-41z" />
<glyph unicode="0" d="M92 258v1122q0 107 75.5 182.5t182.5 75.5h1123q107 0 182.5 -75.5t75.5 -182.5v-1122q0 -107 -75.5 -182.5t-182.5 -75.5h-1123q-107 0 -182.5 75.5t-75.5 182.5zM236 287q0 -60 41.5 -102t101.5 -42h1065q60 0 101.5 42t41.5 102v1065q0 60 -41.5 101.5t-101.5 41.5 h-1065q-60 0 -101.5 -41.5t-41.5 -101.5v-1065zM379 338q0 20 16 35.5t45 15.5h942q29 0 45.5 -15.5t16.5 -35.5t-16.5 -35.5t-45.5 -15.5h-942q-29 0 -45 15.5t-16 35.5zM379 522q0 20 16 35.5t45 15.5h942q29 0 45.5 -15.5t16.5 -35.5t-16.5 -35.5t-45.5 -15.5h-942 q-29 0 -45 15.5t-16 35.5z" />
<glyph unicode="1" d="M92 258v1122q0 107 75.5 182.5t182.5 75.5h1123q107 0 182.5 -75.5t75.5 -182.5v-1122q0 -107 -75.5 -182.5t-182.5 -75.5h-1123q-107 0 -182.5 75.5t-75.5 182.5zM236 287q0 -60 41.5 -102t101.5 -42h1065q60 0 101.5 42t41.5 102v1065q0 60 -41.5 101.5t-101.5 41.5 h-1065q-60 0 -101.5 -41.5t-41.5 -101.5v-1065zM379 338q0 20 16 35.5t45 15.5h942q29 0 45.5 -15.5t16.5 -35.5t-16.5 -35.5t-45.5 -15.5h-942q-29 0 -45 15.5t-16 35.5zM379 522q0 20 16 35.5t45 15.5h942q29 0 45.5 -15.5t16.5 -35.5t-16.5 -35.5t-45.5 -15.5h-942 q-29 0 -45 15.5t-16 35.5zM502 1180v94q42 4 78 21.5t47 52.5h131v-672h-150v504h-106zM952 836v348q0 78 47.5 124t135.5 46q89 0 137.5 -46t48.5 -124v-348q0 -75 -48.5 -120.5t-137.5 -45.5q-87 0 -135 45.5t-48 120.5zM1102 825q0 -21 10 -32t25 -11q14 0 25.5 12 t11.5 31v373q0 21 -11 33t-26 12q-14 0 -24.5 -12t-10.5 -33v-373z" />
<glyph unicode="2" d="M92 258v1122q0 107 75.5 182.5t182.5 75.5h1123q107 0 182.5 -75.5t75.5 -182.5v-1122q0 -107 -75.5 -182.5t-182.5 -75.5h-1123q-107 0 -182.5 75.5t-75.5 182.5zM236 287q0 -60 41.5 -102t101.5 -42h1065q60 0 101.5 42t41.5 102v1065q0 60 -41.5 101.5t-101.5 41.5 h-1065q-60 0 -101.5 -41.5t-41.5 -101.5v-1065zM379 338q0 20 16 35.5t45 15.5h942q29 0 45.5 -15.5t16.5 -35.5t-16.5 -35.5t-45.5 -15.5h-942q-29 0 -45 15.5t-16 35.5zM379 522q0 20 16 35.5t45 15.5h942q29 0 45.5 -15.5t16.5 -35.5t-16.5 -35.5t-45.5 -15.5h-942 q-29 0 -45 15.5t-16 35.5zM721 676v41q0 61 17.5 113.5t43.5 86t56.5 66.5t56.5 58.5t43.5 59t17.5 70.5q0 28 -12.5 44t-28.5 16t-29.5 -16.5t-13.5 -43.5v-67h-137v53q0 191 191 191q86 0 133 -44.5t47 -132.5q0 -56 -18 -98.5t-47 -71.5t-59.5 -54.5t-61 -63.5t-46.5 -84 h232v-123h-385z" />
<glyph unicode="3" d="M92 258v1122q0 107 75.5 182.5t182.5 75.5h1123q107 0 182.5 -75.5t75.5 -182.5v-1122q0 -107 -75.5 -182.5t-182.5 -75.5h-1123q-107 0 -182.5 75.5t-75.5 182.5zM236 287q0 -60 41.5 -102t101.5 -42h1065q60 0 101.5 42t41.5 102v1065q0 60 -41.5 101.5t-101.5 41.5 h-1065q-60 0 -101.5 -41.5t-41.5 -101.5v-1065zM379 338q0 20 16 35.5t45 15.5h942q29 0 45.5 -15.5t16.5 -35.5t-16.5 -35.5t-45.5 -15.5h-942q-29 0 -45 15.5t-16 35.5zM379 522q0 20 16 35.5t45 15.5h942q29 0 45.5 -15.5t16.5 -35.5t-16.5 -35.5t-45.5 -15.5h-942 q-29 0 -45 15.5t-16 35.5zM735 846v61h142v-69q0 -50 41 -50q40 0 40 50v73q0 66 -75 66h-21v113h27q61 0 61 51v51q0 45 -32 45q-39 0 -39 -47v-43h-142v43q0 158 183 158q186 0 186 -162q0 -47 -14 -79.5t-29 -44.5t-37 -22q36 -11 58 -44t22 -109q0 -106 -41 -157.5 t-145 -51.5q-185 0 -185 168z" />
<glyph unicode="4" d="M92 258v1122q0 107 75.5 182.5t182.5 75.5h1123q107 0 182.5 -75.5t75.5 -182.5v-1122q0 -107 -75.5 -182.5t-182.5 -75.5h-1123q-107 0 -182.5 75.5t-75.5 182.5zM236 287q0 -60 41.5 -102t101.5 -42h1065q60 0 101.5 42t41.5 102v1065q0 60 -41.5 101.5t-101.5 41.5 h-1065q-60 0 -101.5 -41.5t-41.5 -101.5v-1065zM379 338q0 20 16 35.5t45 15.5h942q29 0 45.5 -15.5t16.5 -35.5t-16.5 -35.5t-45.5 -15.5h-942q-29 0 -45 15.5t-16 35.5zM379 522q0 20 16 35.5t45 15.5h942q29 0 45.5 -15.5t16.5 -35.5t-16.5 -35.5t-45.5 -15.5h-942 q-29 0 -45 15.5t-16 35.5zM721 801v143l106 406h150l-105 -424h46v92h149v-92h49v-125h-49v-125h-149v125h-197z" />
<glyph unicode="5" d="M92 258v1122q0 107 75.5 182.5t182.5 75.5h1123q107 0 182.5 -75.5t75.5 -182.5v-1122q0 -107 -75.5 -182.5t-182.5 -75.5h-1123q-107 0 -182.5 75.5t-75.5 182.5zM236 287q0 -60 41.5 -102t101.5 -42h1065q60 0 101.5 42t41.5 102v1065q0 60 -41.5 101.5t-101.5 41.5 h-1065q-60 0 -101.5 -41.5t-41.5 -101.5v-1065zM379 338q0 20 16 35.5t45 15.5h942q29 0 45.5 -15.5t16.5 -35.5t-16.5 -35.5t-45.5 -15.5h-942q-29 0 -45 15.5t-16 35.5zM379 522q0 20 16 35.5t45 15.5h942q29 0 45.5 -15.5t16.5 -35.5t-16.5 -35.5t-45.5 -15.5h-942 q-29 0 -45 15.5t-16 35.5zM735 846v57h127v-63q0 -23 12.5 -36t28.5 -13q17 0 30 13t13 36v145q0 23 -13 36t-30 13q-16 0 -28.5 -13t-12.5 -36h-127v363h338v-127h-211v-99q35 25 78 25q156 0 156 -160v-113q0 -107 -41.5 -152.5t-147.5 -45.5q-87 0 -129.5 41t-42.5 129z " />
<glyph unicode="6" d="M92 258v1122q0 107 75.5 182.5t182.5 75.5h1123q107 0 182.5 -75.5t75.5 -182.5v-1122q0 -107 -75.5 -182.5t-182.5 -75.5h-1123q-107 0 -182.5 75.5t-75.5 182.5zM236 287q0 -60 41.5 -102t101.5 -42h1065q60 0 101.5 42t41.5 102v1065q0 60 -41.5 101.5t-101.5 41.5 h-1065q-60 0 -101.5 -41.5t-41.5 -101.5v-1065zM379 338q0 20 16 35.5t45 15.5h942q29 0 45.5 -15.5t16.5 -35.5t-16.5 -35.5t-45.5 -15.5h-942q-29 0 -45 15.5t-16 35.5zM379 522q0 20 16 35.5t45 15.5h942q29 0 45.5 -15.5t16.5 -35.5t-16.5 -35.5t-45.5 -15.5h-942 q-29 0 -45 15.5t-16 35.5zM721 842v340q0 78 47 122t135 44q94 0 132 -44.5t38 -111.5v-12h-125q0 26 -13 40.5t-32 14.5q-18 0 -30.5 -14t-12.5 -39v-76q25 37 88 37q135 0 135 -172v-129q0 -76 -47 -121t-133 -45q-88 0 -135 44.5t-47 121.5zM860 829q0 -19 13.5 -30 t31.5 -11t30.5 10.5t12.5 28.5v156q0 23 -13 36t-32 13q-18 0 -30.5 -12.5t-12.5 -34.5v-156z" />
<glyph unicode="7" d="M92 258v1122q0 107 75.5 182.5t182.5 75.5h1123q107 0 182.5 -75.5t75.5 -182.5v-1122q0 -107 -75.5 -182.5t-182.5 -75.5h-1123q-107 0 -182.5 75.5t-75.5 182.5zM236 287q0 -60 41.5 -102t101.5 -42h1065q60 0 101.5 42t41.5 102v1065q0 60 -41.5 101.5t-101.5 41.5 h-1065q-60 0 -101.5 -41.5t-41.5 -101.5v-1065zM379 338q0 20 16 35.5t45 15.5h942q29 0 45.5 -15.5t16.5 -35.5t-16.5 -35.5t-45.5 -15.5h-942q-29 0 -45 15.5t-16 35.5zM379 522q0 20 16 35.5t45 15.5h942q29 0 45.5 -15.5t16.5 -35.5t-16.5 -35.5t-45.5 -15.5h-942 q-29 0 -45 15.5t-16 35.5zM721 1221v127h391v-115q-80 -118 -123 -309q-31 -137 -31 -232v-16h-161v20q0 107 49 250q45 135 119 275h-244z" />
<glyph unicode="8" d="M92 258v1122q0 107 75.5 182.5t182.5 75.5h1123q107 0 182.5 -75.5t75.5 -182.5v-1122q0 -107 -75.5 -182.5t-182.5 -75.5h-1123q-107 0 -182.5 75.5t-75.5 182.5zM236 287q0 -60 41.5 -102t101.5 -42h1065q60 0 101.5 42t41.5 102v1065q0 60 -41.5 101.5t-101.5 41.5 h-1065q-60 0 -101.5 -41.5t-41.5 -101.5v-1065zM379 338q0 20 16 35.5t45 15.5h942q29 0 45.5 -15.5t16.5 -35.5t-16.5 -35.5t-45.5 -15.5h-942q-29 0 -45 15.5t-16 35.5zM379 522q0 20 16 35.5t45 15.5h942q29 0 45.5 -15.5t16.5 -35.5t-16.5 -35.5t-45.5 -15.5h-942 q-29 0 -45 15.5t-16 35.5zM721 842v55q0 22 2 38.5t9 38t23 38t42 26.5q-38 14 -55 42.5t-17 58.5v45q0 166 178 166q49 0 84.5 -13.5t53 -31t27.5 -43.5t11.5 -42t1.5 -36v-45q0 -71 -71 -101q49 -20 63 -51.5t14 -89.5v-55q0 -76 -48 -121t-136 -45q-86 0 -134 45t-48 121 zM860 831q0 -22 12 -33.5t31 -11.5q17 0 31 12t14 33v107q0 19 -14 30t-31 11q-18 0 -30.5 -11t-12.5 -30v-107zM864 1135q0 -22 11.5 -33.5t27.5 -11.5q15 0 27 11.5t12 33.5v59q0 20 -12 32.5t-27 12.5q-16 0 -27.5 -12t-11.5 -33v-59z" />
<glyph unicode="9" d="M92 258v1122q0 107 75.5 182.5t182.5 75.5h1123q107 0 182.5 -75.5t75.5 -182.5v-1122q0 -107 -75.5 -182.5t-182.5 -75.5h-1123q-107 0 -182.5 75.5t-75.5 182.5zM236 287q0 -60 41.5 -102t101.5 -42h1065q60 0 101.5 42t41.5 102v1065q0 60 -41.5 101.5t-101.5 41.5 h-1065q-60 0 -101.5 -41.5t-41.5 -101.5v-1065zM379 338q0 20 16 35.5t45 15.5h942q29 0 45.5 -15.5t16.5 -35.5t-16.5 -35.5t-45.5 -15.5h-942q-29 0 -45 15.5t-16 35.5zM379 522q0 20 16 35.5t45 15.5h942q29 0 45.5 -15.5t16.5 -35.5t-16.5 -35.5t-45.5 -15.5h-942 q-29 0 -45 15.5t-16 35.5zM721 1053v129q0 77 47.5 121.5t134.5 44.5t134.5 -44.5t47.5 -121.5v-340q0 -77 -47 -121.5t-135 -44.5q-172 0 -172 168h131q0 -26 12 -39.5t29 -13.5t30 13.5t13 39.5v76q-27 -37 -88 -37q-76 0 -106.5 45t-30.5 125zM862 1036q0 -20 12.5 -31.5 t28.5 -11.5t29.5 12.5t13.5 32.5v156q0 20 -12.5 31.5t-28.5 11.5q-17 0 -30 -11.5t-13 -33.5v-156z" />
<glyph unicode=":" d="M92 258v1122q0 107 75.5 182.5t182.5 75.5h1123q107 0 182.5 -75.5t75.5 -182.5v-1122q0 -107 -75.5 -182.5t-182.5 -75.5h-1123q-107 0 -182.5 75.5t-75.5 182.5zM375 485l334 195l706 -211v47l-713 215l-327 -192v-54zM555 315h463v191h-463v-191zM567 881l15 -39 l428 168l12 -13l-176 -252l33 -24l174 250q20 -8 30 -10v-299h41v301q18 5 25 8l248 -348l33 24l-246 346q9 9 18 27l225 -70l13 39l-226 70v12q0 13 -2 19l220 86l-15 38l-219 -86q-9 12 -18 21l120 170l-32 24l-121 -172q-13 7 -23 9v174h-41v-174q-13 -3 -26 -9l-115 164 l-33 -24l115 -164q-9 -7 -18 -25l-263 80l-12 -39l262 -80v-12q0 -14 2 -22zM596 356v109h381v-109h-381zM1034 1071q0 29 20.5 49.5t49.5 20.5t49.5 -20.5t20.5 -49.5t-20.5 -49.5t-49.5 -20.5t-49.5 20.5t-20.5 49.5z" />
<glyph unicode=";" d="M92 258v1122q0 107 75.5 182.5t182.5 75.5h1123q107 0 182.5 -75.5t75.5 -182.5v-1122q0 -107 -75.5 -182.5t-182.5 -75.5h-1123q-107 0 -182.5 75.5t-75.5 182.5zM236 287q0 -60 41.5 -102t101.5 -42h1065q60 0 101.5 42t41.5 102v1065q0 60 -41.5 101.5t-101.5 41.5 h-1065q-60 0 -101.5 -41.5t-41.5 -101.5v-1065zM375 485v54l327 192l713 -215v-47l-706 211zM555 315v191h463v-191h-463zM567 881l428 168q-2 8 -2 22v12l-262 80l12 39l263 -80q9 18 18 25l-115 164l33 24l115 -164q13 6 26 9v174h41v-174q10 -2 23 -9l121 172l32 -24 l-120 -170q9 -9 18 -21l219 86l15 -38l-220 -86q2 -6 2 -19v-12l226 -70l-13 -39l-225 70q-9 -18 -18 -27l246 -346l-33 -24l-248 348q-7 -3 -25 -8v-301h-41v299q-10 2 -30 10l-174 -250l-33 24l176 252l-12 13l-428 -168zM596 356h381v109h-381v-109zM1034 1071 q0 -29 20.5 -49.5t49.5 -20.5t49.5 20.5t20.5 49.5t-20.5 49.5t-49.5 20.5t-49.5 -20.5t-20.5 -49.5z" />
<glyph unicode="&#x3c;" d="M92 258v1122q0 107 75.5 182.5t182.5 75.5h1123q107 0 182.5 -75.5t75.5 -182.5v-1122q0 -107 -75.5 -182.5t-182.5 -75.5h-1123q-107 0 -182.5 75.5t-75.5 182.5zM424 596l49 -86l133 76v-140h53v170l201 117v-227l-149 -88l26 -45l123 69v-155h101v153l122 -67l25 45 l-147 84v231l198 -112v-175h51v144l140 -80l49 86l-135 78l120 71l-28 48l-148 -88l-196 114l196 115l150 -84l26 45l-120 70l135 79l-51 86l-138 -79v143h-51v-172l-198 -113v230l147 84l-27 47l-120 -70v154h-101v-156l-123 72l-26 -47l149 -86v-228l-201 113v172h-53 v-141l-133 77l-49 -86l135 -77l-123 -72l25 -45l151 86l199 -117l-199 -114l-151 88l-25 -48l123 -71z" />
<glyph unicode="=" d="M92 258v1122q0 107 75.5 182.5t182.5 75.5h1123q107 0 182.5 -75.5t75.5 -182.5v-1122q0 -107 -75.5 -182.5t-182.5 -75.5h-1123q-107 0 -182.5 75.5t-75.5 182.5zM236 287q0 -60 41 -102t102 -42h1065q60 0 101.5 42t41.5 102v1065q0 60 -41.5 101.5t-101.5 41.5h-1065 q-60 0 -101.5 -41.5t-41.5 -101.5v-1065zM481 432q0 69 54 113v704q0 49 27.5 76t64.5 27t64.5 -27t27.5 -76v-704q53 -43 53 -113q0 -60 -42.5 -102.5t-102.5 -42.5t-103 42.5t-43 102.5zM492 432q0 -56 40 -95.5t95 -39.5t95 39.5t40 95.5q0 67 -53 107v710 q0 45 -24.5 69.5t-57.5 24.5t-57.5 -24.5t-24.5 -69.5v-710q-53 -40 -53 -107zM502 432q0 66 53 103v714q0 39 21 61.5t51 22.5t50.5 -22.5t20.5 -61.5v-714q54 -38 54 -103q0 -52 -36 -88.5t-89 -36.5t-89 36.5t-36 88.5zM565 535h123v714q0 35 -18 54.5t-43 19.5 t-43.5 -19.5t-18.5 -54.5v-714zM852 383v143q0 34 22.5 60t77.5 26t78 -25.5t23 -60.5v-32h-82v36q0 27 -19 27q-18 0 -18 -27v-153q0 -25 18 -25q19 0 19 25v55h82v-49q0 -34 -23 -60t-78 -26t-77.5 26t-22.5 60zM852 1141v61h82v-61h-82zM1083 621q0 21 14.5 36t35.5 15 t36 -15t15 -36t-15 -35.5t-36 -14.5t-35.5 14.5t-14.5 35.5zM1110 621q0 -10 7 -16.5t16 -6.5t15.5 6.5t6.5 16.5q0 22 -22 22q-9 0 -16 -6t-7 -16z" />
<glyph unicode="&#x3e;" d="M92 258v1122q0 107 75.5 182.5t182.5 75.5h1123q107 0 182.5 -75.5t75.5 -182.5v-1122q0 -107 -75.5 -182.5t-182.5 -75.5h-1123q-107 0 -182.5 75.5t-75.5 182.5zM399 989q0 -141 76.5 -230t206.5 -89v-103q0 -110 -57.5 -169.5t-173.5 -59.5q-11 0 -18 -8.5t-7 -18.5 t7 -17t18 -7q139 0 210.5 74t71.5 206v154h-51q-100 0 -165.5 75t-65.5 193v314h606v-314q0 -118 -66 -193t-166 -75h-51v-154q0 -132 71.5 -206t211.5 -74q11 0 17.5 7t6.5 17t-6.5 18.5t-17.5 8.5q-116 0 -174 59.5t-58 169.5v103q130 0 206.5 89t76.5 230v365h-709v-365z M1153 1102v225q0 11 7.5 19t17.5 8t18 -8t8 -19v-225q0 -14 -8 -21.5t-18 -7.5t-17.5 7.5t-7.5 21.5zM1249 313q0 -13 7.5 -19.5t17.5 -6.5t18 6.5t8 19.5v568q43 11 70 48t27 95v303q0 11 -8.5 19t-18.5 8q-9 0 -16.5 -7.5t-7.5 -19.5v-301q0 -53 -25.5 -80.5t-71.5 -27.5 v-605zM1249 1102v225q0 11 7.5 19t17.5 8t18 -8t8 -19v-225q0 -14 -8 -21.5t-18 -7.5t-17.5 7.5t-7.5 21.5z" />
<glyph unicode="?" d="M92 258v1122q0 107 75.5 182.5t182.5 75.5h1123q107 0 182.5 -75.5t75.5 -182.5v-1122q0 -107 -75.5 -182.5t-182.5 -75.5h-1123q-107 0 -182.5 75.5t-75.5 182.5zM348 862q0 -108 45 -195.5t120.5 -142t170 -83.5t197.5 -29q147 0 246 22.5t200 79.5v186 q-119 -73 -276 -73q-92 0 -161 60t-69 157q0 96 68.5 154.5t161.5 58.5q125 0 276 -82v174q-108 66 -207.5 95.5t-238.5 29.5q-83 0 -159 -14t-145 -46t-119.5 -79t-80 -117t-29.5 -156zM373 862q0 -125 71.5 -224t186.5 -150.5t250 -51.5q237 0 419 96v127 q-91 -57 -249 -57q-103 0 -178.5 66t-75.5 176t75.5 173.5t178.5 63.5q70 0 137 -17.5t112 -47.5v114q-190 119 -419 119q-138 0 -251 -41.5t-185 -131t-72 -214.5zM465 694v244q0 67 39.5 111.5t107.5 44.5q71 0 116.5 -44.5t45.5 -111.5q0 -68 -45.5 -113t-116.5 -45 q-16 0 -28 6v93q14 -7 28 -7q33 0 53.5 18t20.5 48q0 29 -20.5 46t-53.5 17q-21 0 -39 -18t-18 -45v-326q-36 0 -63 25.5t-27 56.5zM1176 854h67v-123h158v123h69v88h-294v-88zM1198 879h70v-125h110v125h70v41h-250v-41z" />
<glyph unicode="@" d="M92 258v1122q0 107 75.5 182.5t182.5 75.5h1123q107 0 182.5 -75.5t75.5 -182.5v-1122q0 -107 -75.5 -182.5t-182.5 -75.5h-1123q-107 0 -182.5 75.5t-75.5 182.5zM379 338q0 -20 16 -35.5t45 -15.5h942q29 0 45.5 15.5t16.5 35.5t-16.5 35.5t-45.5 15.5h-942 q-29 0 -45 -15.5t-16 -35.5zM379 522q0 -20 16 -35.5t45 -15.5h942q29 0 45.5 15.5t16.5 35.5t-16.5 35.5t-45.5 15.5h-942q-29 0 -45 -15.5t-16 -35.5zM721 676h385v123h-232q16 46 46.5 84t61 63.5t59.5 54.5t47 71.5t18 98.5q0 88 -47 132.5t-133 44.5q-191 0 -191 -191 v-53h137v67q0 27 13.5 43.5t29.5 16.5t28.5 -16t12.5 -44q0 -37 -17.5 -70.5t-43.5 -59t-56.5 -58.5t-56.5 -66.5t-43.5 -86t-17.5 -113.5v-41z" />
<glyph unicode="A" d="M92 258v1122q0 107 75.5 182.5t182.5 75.5h1123q107 0 182.5 -75.5t75.5 -182.5v-1122q0 -107 -75.5 -182.5t-182.5 -75.5h-1123q-107 0 -182.5 75.5t-75.5 182.5zM379 338q0 -20 16 -35.5t45 -15.5h942q29 0 45.5 15.5t16.5 35.5t-16.5 35.5t-45.5 15.5h-942 q-29 0 -45 -15.5t-16 -35.5zM584 492l260 45l233 634l162 113l-51 68l-191 -140l-215 -579l-198 -58v-83zM915 553q0 -44 30 -73t73 -29q42 0 72 29t30 73q0 42 -30 72t-72 30q-43 0 -73 -29.5t-30 -72.5z" />
<glyph unicode="B" d="M92 258v1122q0 107 75.5 182.5t182.5 75.5h1123q107 0 182.5 -75.5t75.5 -182.5v-1122q0 -107 -75.5 -182.5t-182.5 -75.5h-1123q-107 0 -182.5 75.5t-75.5 182.5zM379 338q0 -20 16 -35.5t45 -15.5h942q29 0 45.5 15.5t16.5 35.5t-16.5 35.5t-45.5 15.5h-942 q-29 0 -45 -15.5t-16 -35.5zM584 492l260 45l102 278l-18 14l-99 -75l-47 -121l-198 -58v-83zM600 1092l291 -220l-287 -217h78l246 189l252 -189h73l-286 217l288 220h-73l-254 -193l-256 193h-72zM897 938l31 -23l76 56l73 200l162 113l-51 68l-191 -140zM915 553 q0 -44 30 -73t73 -29q42 0 72 29t30 73q0 42 -30 72t-72 30q-43 0 -73 -29.5t-30 -72.5z" />
<glyph unicode="C" d="M92 258v1122q0 107 75.5 182.5t182.5 75.5h1123q107 0 182.5 -75.5t75.5 -182.5v-1122q0 -107 -75.5 -182.5t-182.5 -75.5h-1123q-107 0 -182.5 75.5t-75.5 182.5zM518 952q0 -149 98.5 -253.5t243.5 -104.5v-205h-244q-29 0 -45 -15.5t-16 -35.5t16 -35.5t45 -15.5h588 q29 0 44.5 15t15.5 36t-15.5 36t-44.5 15h-241v205q145 0 243.5 104.5t98.5 253.5l-41 400h-705z" />
<glyph unicode="D" d="M92 258v1122q0 107 75.5 182.5t182.5 75.5h1123q107 0 182.5 -75.5t75.5 -182.5v-1122q0 -107 -75.5 -182.5t-182.5 -75.5h-1123q-107 0 -182.5 75.5t-75.5 182.5zM518 952q0 -149 98.5 -253.5t243.5 -104.5v-205h-244q-29 0 -45 -15.5t-16 -35.5t16 -35.5t45 -15.5h588 q29 0 45.5 15.5t16.5 35.5t-16.5 35.5t-45.5 15.5h-241v205q145 0 243.5 104.5t98.5 253.5l-41 400h-187l174 -447l-6 -2l-102 248l-27 12l-84 189h-473z" />
<glyph unicode="E" d="M92 258v1122q0 107 75.5 182.5t182.5 75.5h1123q107 0 182.5 -75.5t75.5 -182.5v-1122q0 -107 -75.5 -182.5t-182.5 -75.5h-1123q-107 0 -182.5 75.5t-75.5 182.5zM379 338q0 -20 16 -35.5t45 -15.5h942q29 0 45.5 15.5t16.5 35.5t-16.5 35.5t-45.5 15.5h-942 q-29 0 -45 -15.5t-16 -35.5zM379 1104q0 -22 13.5 -36.5t35.5 -14.5q25 0 47 22l109 109v-631q0 -29 15.5 -45t35.5 -16t35.5 16t15.5 45v631l109 -109q22 -22 47 -22q22 0 35.5 14.5t13.5 36.5q0 24 -21 45l-184 184q-19 19 -51 19t-51 -19l-185 -184q-20 -20 -20 -45z M930 1104q0 -22 13.5 -36.5t35.5 -14.5q25 0 47 22l109 109v-631q0 -29 15.5 -45t35.5 -16t35.5 16t15.5 45v631l109 -109q22 -22 47 -22q22 0 35.5 14.5t13.5 36.5q0 24 -21 45l-184 184q-17 17 -49 17q-36 0 -53 -17l-185 -184q-20 -20 -20 -45z" />
<glyph unicode="F" d="M92 258v1122q0 107 75.5 182.5t182.5 75.5h1123q107 0 182.5 -75.5t75.5 -182.5v-1122q0 -107 -75.5 -182.5t-182.5 -75.5h-1123q-107 0 -182.5 75.5t-75.5 182.5zM530 391q0 -49 31.5 -76.5t73.5 -27.5q41 0 70.5 27t29.5 77v346h381q47 0 74 31t27 72t-27 71.5 t-74 30.5h-381v205h482q49 0 75.5 30t26.5 72t-26.5 72.5t-75.5 30.5h-558q-54 0 -91.5 -38.5t-37.5 -92.5v-830z" />
<glyph unicode="G" d="M92 258v1122q0 107 75.5 182.5t182.5 75.5h1123q107 0 182.5 -75.5t75.5 -182.5v-1122q0 -107 -75.5 -182.5t-182.5 -75.5h-1123q-107 0 -182.5 75.5t-75.5 182.5zM379 1300q0 -20 16 -35.5t45 -15.5h420v-338l51 -53q45 0 84 -22l68 75q-49 37 -100 37v301h419 q29 0 45.5 15.5t16.5 35.5q0 21 -16.5 36.5t-45.5 15.5h-942q-29 0 -45 -15.5t-16 -36.5zM616 389h76l244 277l244 -277h73l-278 318l278 319h-75l-242 -274l-244 274h-74l281 -317zM643 692q0 -97 72 -176l63 72q-33 33 -33 104h-102zM772 463q66 -39 139 -39q100 0 172 59 l-69 78q-43 -35 -103 -35q-35 0 -69 17zM1051 778q26 -41 26 -86q0 -41 -14 -69l70 -80q47 62 47 149q0 90 -60 166z" />
<glyph unicode="H" d="M92 258v1122q0 107 75.5 182.5t182.5 75.5h1123q107 0 182.5 -75.5t75.5 -182.5v-1122q0 -107 -75.5 -182.5t-182.5 -75.5h-1123q-107 0 -182.5 75.5t-75.5 182.5zM276 829q0 -20 16.5 -35.5t45.5 -15.5h129l-109 -108q-22 -22 -22 -47q0 -22 14.5 -36t36.5 -14 q24 0 45 21l182 182q21 21 21 53q0 33 -21 54l-182 182q-20 20 -45 20q-22 0 -36.5 -13.5t-14.5 -35.5q0 -25 22 -47l109 -108h-129q-29 0 -45.5 -15.5t-16.5 -36.5zM596 516h76l241 277l244 -277h76l-281 320l281 317h-76l-244 -276l-243 276h-74l281 -317zM676 307 q0 -20 20 -20q21 0 21 20v240l-41 -45v-195zM676 629l41 45v325l-41 39v-409zM676 1165l41 -47v213q0 9 -6.5 15t-14.5 6t-14 -6t-6 -15v-166zM758 340q0 -22 15.5 -37.5t37.5 -15.5h205q22 0 37.5 15.5t15.5 37.5v252l-156 178l-155 -176v-254zM758 721l102 117l-102 114 v-231zM758 1073l155 -176l156 178v223q0 22 -15.5 38t-37.5 16h-205q-22 0 -37.5 -16t-15.5 -38v-225zM969 836l100 -115v227zM1110 307q0 -9 6 -14.5t14 -5.5t14.5 5.5t6.5 14.5v197l-41 43v-240zM1110 674l41 -47v413l-41 -45v-321zM1110 1120l41 47v164q0 9 -6.5 15 t-14.5 6t-14 -6t-6 -15v-211zM1192 829q0 -33 20 -53l183 -182q21 -21 45 -21q22 0 36.5 14t14.5 36q0 24 -23 47l-108 108h129q29 0 45 15.5t16 35.5q0 21 -16 36.5t-45 15.5h-129l108 108q23 23 23 47q0 22 -14.5 35.5t-36.5 13.5q-25 0 -45 -20l-183 -182 q-20 -20 -20 -54z" />
<glyph unicode="I" d="M92 258v1122q0 107 75.5 182.5t182.5 75.5h1123q107 0 182.5 -75.5t75.5 -182.5v-1122q0 -107 -75.5 -182.5t-182.5 -75.5h-1123q-107 0 -182.5 75.5t-75.5 182.5zM379 911h6q63 54 131 54q69 0 129 -54h2q63 54 135 54q38 0 78 -19v-500q0 -24 -17.5 -40.5t-41.5 -16.5 t-41 16.5t-17 40.5q0 22 -15 34t-36 12t-36 -12t-15 -34q0 -67 47 -113t113 -46q67 0 114.5 46t47.5 113v496q42 23 84 23q57 0 129 -54h2q66 54 129 54t135 -54h2q0 119 -71 220t-194 160t-268 59t-267.5 -59t-193.5 -160t-71 -220z" />
<glyph unicode="J" d="M92 258v1122q0 107 75.5 182.5t182.5 75.5h1123q107 0 182.5 -75.5t75.5 -182.5v-1122q0 -107 -75.5 -182.5t-182.5 -75.5h-1123q-107 0 -182.5 75.5t-75.5 182.5zM379 911h6q63 54 131 54q69 0 129 -54h2q63 54 135 54q38 0 78 -19v-500q0 -24 -17.5 -40.5t-41.5 -16.5 t-41 16.5t-17 40.5q0 22 -15 34t-36 12t-36 -12t-15 -34q0 -67 47 -113t113 -46q67 0 114.5 46t47.5 113v496q42 23 84 23q57 0 129 -54h2q66 54 129 54t135 -54h2q0 119 -71 220t-194 160t-268 59t-267.5 -59t-193.5 -160t-71 -220zM446 1311q6 -53 17.5 -72.5t30.5 -19.5 q16 0 27 10.5t11 27.5q0 36 -81 54h-5zM514 1163q6 -54 17 -73t30 -19q16 0 27.5 11t11.5 28q0 35 -82 53h-4zM621 1249q6 -54 17 -73t30 -19q16 0 27.5 11t11.5 28q0 35 -82 53h-4z" />
<glyph unicode="K" d="M92 258v1122q0 107 75.5 182.5t182.5 75.5h1123q107 0 182.5 -75.5t75.5 -182.5v-1122q0 -107 -75.5 -182.5t-182.5 -75.5h-1123q-107 0 -182.5 75.5t-75.5 182.5zM381 1243q0 -44 29.5 -76t70.5 -32v14q-35 0 -60.5 28t-25.5 66q0 39 25 66.5t61 27.5v15 q-41 0 -70.5 -32.5t-29.5 -76.5zM446 1243q0 -26 17.5 -44.5t42.5 -18.5v8q-22 0 -36.5 16t-14.5 39t14.5 39t36.5 16v9q-25 0 -42.5 -19t-17.5 -45zM584 492q0 -96 96.5 -150.5t228.5 -54.5q85 0 158 22.5t121.5 70t48.5 112.5v860h-205v-758q0 -48 -36.5 -75t-86.5 -27 q-49 0 -85 27t-36 75v758h-204v-860zM909 307v164q30 0 61 10.5t57 40t26 72.5v737h164v-839q0 -47 -29.5 -84t-76.5 -58t-99 -32t-103 -11zM1319 1180q25 0 42 18.5t17 44.5t-17 45t-42 19v-9q22 0 36.5 -16t14.5 -39t-14.5 -39t-36.5 -16v-8zM1343 1135q41 0 71 32t30 76 t-30 76.5t-71 32.5v-15q35 0 61 -28t26 -66q0 -39 -25.5 -66.5t-61.5 -27.5v-14z" />
<glyph unicode="L" d="M92 258v1122q0 107 75.5 182.5t182.5 75.5h1123q107 0 182.5 -75.5t75.5 -182.5v-1122q0 -107 -75.5 -182.5t-182.5 -75.5h-1123q-107 0 -182.5 75.5t-75.5 182.5zM502 514q0 -41 31.5 -72.5t72.5 -31.5q31 0 72 41l231 225l226 -225q41 -41 79 -41q41 0 74 32.5t33 73.5 q0 39 -33 72l-235 231l229 230q39 39 39 81q0 40 -29 69.5t-69 29.5q-41 0 -76 -35l-234 -233l-235 237q-31 31 -70 31q-41 0 -72.5 -32.5t-31.5 -74.5q0 -38 31 -69l233 -234l-233 -231q-33 -33 -33 -74z" />
<glyph unicode="M" d="M92 258v1122q0 107 75.5 182.5t182.5 75.5h1123q107 0 182.5 -75.5t75.5 -182.5v-1122q0 -107 -75.5 -182.5t-182.5 -75.5h-1123q-107 0 -182.5 75.5t-75.5 182.5zM526 512h76l246 188l246 -188h77l-284 217l284 217h-77l-246 -186l-246 186h-76l285 -217zM700 575 q0 -47 8 -92.5t26 -92t54 -75t86 -28.5q67 0 116.5 44t49.5 105q0 28 -14.5 50.5t-37 40t-45.5 35t-42.5 45.5t-26.5 63l-26 18zM700 655l99 74l-99 76v-150zM700 883l150 -113l29 23q15 84 84 110q71 27 115 81t44 106q0 39 -27.5 63.5t-84.5 24.5q-34 0 -68 -9 q-140 -34 -191 -104t-51 -182zM700 1133q0 -15 10.5 -26t30.5 -11q15 0 25 11.5t10 25.5q0 15 -11 25.5t-34 10.5q-13 0 -22 -11t-9 -25zM764 1184q0 -31 53 -31q13 0 22 14t9 27q0 29 -51 29q-33 -6 -33 -39zM846 1235q0 -18 11 -30.5t32 -12.5q19 0 29 13t10 30t-11.5 30 t-33.5 13q-18 0 -27.5 -12.5t-9.5 -30.5zM940 1257q0 -20 12 -34.5t33 -14.5t34 17t13 39q0 45 -47 45q-21 0 -33 -16t-12 -36zM1042 1255q0 -34 19 -51q14 -12 29 -12q17 0 35.5 15t27.5 34l12 37q0 40 -13 57t-42 17q-42 0 -61 -54z" />
<glyph unicode="N" d="M92 258v1122q0 107 75.5 182.5t182.5 75.5h1123q107 0 182.5 -75.5t75.5 -182.5v-1122q0 -107 -75.5 -182.5t-182.5 -75.5h-1123q-107 0 -182.5 75.5t-75.5 182.5zM379 338q0 -20 16 -35.5t45 -15.5h942q29 0 45.5 15.5t16.5 35.5t-16.5 35.5t-45.5 15.5h-942 q-29 0 -45 -15.5t-16 -35.5zM379 848q0 -56 25.5 -126.5t68.5 -137t109.5 -116.5t138.5 -62h98q-164 94 -164 272q19 -32 56 -57t57 -25q53 0 84 30.5t31 88.5q0 29 -6 59q27 0 40 -26t15.5 -57t18.5 -57t50 -26q67 0 168 103q0 -99 -69.5 -182.5t-167.5 -122.5h100 q157 33 243.5 119t86.5 173q0 47 -21.5 131.5t-21.5 153.5q0 80 59 180q-47 0 -89 -12.5t-82 -40t-67 -81t-34 -126.5h-6q0 233 -56 339t-178 106q-78 0 -166 -60q58 -85 58 -164q0 -85 -49.5 -138.5t-94.5 -53.5q-27 0 -39 20.5t-12 40.5q0 6 12.5 30t25.5 76t13 124 q-117 -68 -176 -164.5t-59 -210.5z" />
<glyph unicode="O" d="M92 258v1122q0 107 75.5 182.5t182.5 75.5h1123q107 0 182.5 -75.5t75.5 -182.5v-1122q0 -107 -75.5 -182.5t-182.5 -75.5h-1123q-107 0 -182.5 75.5t-75.5 182.5zM510 844l90 -557h215l90 557h-395zM567 1065l13 -68v-67l14 -49l53 14l53 -4l-10 65l12 82l-34 37 l-37 -37zM578 1161l368 -168l43 -180h266l-49 350h-628v-2zM915 274h3l202 347h4l127 -347h4v523h-266zM973 1282q0 -44 32.5 -76t75.5 -32q44 0 75.5 32t31.5 76q0 47 -31.5 80t-75.5 33q-43 0 -75.5 -33t-32.5 -80z" />
<glyph unicode="P" d="M92 258v1122q0 107 75.5 182.5t182.5 75.5h1123q107 0 182.5 -75.5t75.5 -182.5v-1122q0 -107 -75.5 -182.5t-182.5 -75.5h-1123q-107 0 -182.5 75.5t-75.5 182.5zM379 287h1069v10h-860l452 285l68 186h10l23 72l-164 114l-234 -166l-6 -20h11l-173 -471h-196v-10z M596 317l434 277l64 174h-330zM612 768h86l279 199l280 -199h89l-324 227l324 230h-89l-280 -197l-279 197h-86l324 -230zM784 903l136 92l-84 58zM860 1124l117 -80l295 205l31 103h-367zM1038 995l125 -86l72 226z" />
<glyph unicode="Q" d="M92 258v1122q0 107 75.5 182.5t182.5 75.5h1123q107 0 182.5 -75.5t75.5 -182.5v-1122q0 -107 -75.5 -182.5t-182.5 -75.5h-1123q-107 0 -182.5 75.5t-75.5 182.5zM428 813q0 -169 120.5 -289.5t289.5 -120.5v103q-128 0 -218 90t-90 217t90 217t218 90v103 q-169 0 -289.5 -120.5t-120.5 -289.5zM936 813q0 -169 120.5 -289.5t289.5 -120.5v103q-114 0 -199.5 73t-104.5 183h279v102h-279q19 110 104.5 183t199.5 73v103q-169 0 -289.5 -120.5t-120.5 -289.5z" />
<glyph unicode="R" d="M92 258v1122q0 107 75.5 182.5t182.5 75.5h1123q107 0 182.5 -75.5t75.5 -182.5v-1122q0 -107 -75.5 -182.5t-182.5 -75.5h-1123q-107 0 -182.5 75.5t-75.5 182.5zM381 756q0 -23 10 -43l94 -221q25 -62 58 -96t84 -34h209v259h-256l112 178l84 -70l-102 262h-289l86 -63 l-70 -105q-20 -33 -20 -67zM408 754q0 -16 8 -29l96 -221q0 26 7 50.5t13.5 37t20.5 37.5l135 213l27 -25l-60 148h-192l47 -31l-80 -123q-22 -28 -22 -57zM535 496q0 -45 24 -77t68 -32h182v205h-244q-30 -45 -30 -96zM567 1079l234 -114l86 211l121 -166l-93 -58h287 l105 269l-88 -60l-72 105q-39 51 -94 51h-246q-140 0 -176 -82zM602 1096l186 -88l78 192q-32 51 -57.5 66.5t-56.5 15.5q-32 0 -59 -16.5t-36 -42.5zM825 1290q26 -20 58 -57l166 -232l-29 -20h164l67 168l-39 -25l-90 125q-29 41 -73 41h-224zM864 494l174 -244v112h111 q76 0 108 48l136 198q51 76 51 127q0 30 -19 66l-114 176l-219 -137l143 -219h-197v100zM903 494l105 -154v47h141q37 0 55 9t35 30l115 172q-40 -6 -74 -6h-272v45zM1133 829l133 -208h43q45 0 76.5 33t31.5 73q0 28 -16 57l-96 154z" />
<glyph unicode="S" d="M92 258v1122q0 107 75.5 182.5t182.5 75.5h1123q107 0 182.5 -75.5t75.5 -182.5v-1122q0 -107 -75.5 -182.5t-182.5 -75.5h-1123q-107 0 -182.5 75.5t-75.5 182.5zM410 815q0 -135 67 -250t182 -182.5t250 -67.5q133 0 248 67.5t182.5 183t67.5 249.5q0 99 -40 191 t-107.5 159.5t-159.5 107.5t-191 40q-101 0 -193.5 -40t-159 -107.5t-106.5 -159.5t-40 -191zM457 815q0 -123 90 -270l4 4q-29 71 -29 153q0 91 37 183q44 109 131.5 181.5t218.5 72.5v127q121 -43 200 -120t79 -145q0 -70 -80 -149.5t-199 -110.5v127q-87 -36 -160 -113.5 t-73 -129.5q0 -57 72 -135.5t161 -116.5v127q106 0 199.5 58t148 152.5t54.5 198.5q0 70 -27.5 135.5t-77.5 118t-127.5 84t-169.5 31.5q-121 0 -226.5 -67t-165.5 -173.5t-60 -222.5z" />
<glyph unicode="T" d="M92 258v1122q0 107 75.5 182.5t182.5 75.5h1123q107 0 182.5 -75.5t75.5 -182.5v-1122q0 -107 -75.5 -182.5t-182.5 -75.5h-1123q-107 0 -182.5 75.5t-75.5 182.5zM401 520q0 -55 37.5 -93t114.5 -38h352v86h-330q-83 0 -83 49q0 26 24 76l86 168l92 -47l-80 168 l-176 -37l88 -41l-104 -205q-21 -44 -21 -86zM596 956l80 -38l151 280q29 57 74 57q39 0 76 -57l104 -172l-84 -61h181l59 165l-84 -59l-129 207q-41 65 -119 65q-40 0 -77 -22.5t-62 -65.5zM946 434l105 -145v100h213q81 0 122 41t41 100q0 54 -28 97l-166 301l-72 -43 l158 -291q24 -39 24 -68q0 -51 -100 -51h-192v103z" />
<glyph unicode="U" d="M92 258v1122q0 107 75.5 182.5t182.5 75.5h1123q107 0 182.5 -75.5t75.5 -182.5v-1122q0 -107 -75.5 -182.5t-182.5 -75.5h-1123q-107 0 -182.5 75.5t-75.5 182.5zM420 848q0 -39 23 -80t120 -178q21 -28 21 -55v-248h225v270q0 84 -37 133l-182 250q-15 18 -37 18 q-24 0 -47 -20t-23 -45q0 -10 6 -19l74 -118v-13l-78 127q-6 9 -6 29q0 23 19 40t45 24v231q0 38 -18.5 60t-43.5 22t-43 -22t-18 -60v-346zM707 969l200 -119v244l-200 123v-248zM707 1227l204 -125l205 125l-205 125zM915 850l201 123v244l-201 -123v-244zM1012 287h225 v248q0 28 20 55q98 138 121 179t23 79v346q0 38 -18.5 60t-43.5 22t-43 -22t-18 -60v-231q25 -3 45 -20.5t20 -39.5q0 -17 -8 -33l-78 -127v13l74 118q6 12 6 29q0 22 -23 38.5t-46 16.5q-22 0 -37 -18l-182 -250q-37 -49 -37 -133v-270z" />
<glyph unicode="V" d="M217 762q0 43 29 88l90 137l-115 84h381l131 -342l-108 86l-148 -231h336v-338h-274q-66 0 -106.5 43.5t-76.5 126.5l-127 289q-12 27 -12 57zM254 760q0 -21 8 -37l123 -289q0 34 9.5 65t19 48t28.5 47l179 280l32 -32l-78 194h-249l57 -41l-102 -161q-27 -46 -27 -74z M461 1184l84 202q45 109 229 109h324q72 0 119 -68l96 -135l114 76l-137 -348h-375l123 72l-159 219l-113 -275zM799 1460q31 -19 73 -76l220 -303l-39 -24h213l90 221l-51 -35l-115 162q-40 55 -98 55h-293zM850 418l225 299v-133h256l-184 284l285 185l149 -234 q25 -37 25 -82q0 -77 -66 -170l-178 -260q-23 -33 -56 -47t-87 -14h-144v-146zM901 418l137 -201v64h183q49 0 71.5 11t46.5 40l150 223q-44 -8 -96 -8h-355v57z" />
<glyph unicode="W" d="M84 807q0 127 43.5 230.5t117.5 173t175.5 117t213.5 68.5t236 21q204 0 351 -44.5t303 -141.5v-256q-108 61 -203.5 92t-202.5 31q-87 0 -163.5 -37.5t-125.5 -111.5t-49 -169q0 -143 101 -230t237 -87q119 0 215 24t191 82v-272q-145 -84 -292 -118t-362 -34 q-122 0 -236 26.5t-214 81.5t-175 132.5t-118 186t-43 235.5zM254 561q0 -47 40.5 -85t94.5 -38v482q0 40 27 67t59 27q46 0 75.5 -26t29.5 -68q0 -44 -29.5 -70.5t-75.5 -26.5q-27 0 -43 8v-135q16 -6 43 -6q105 0 172.5 65.5t67.5 164.5t-67.5 164t-172.5 65 q-103 0 -162 -64.5t-59 -164.5v-359zM1303 797v129h436v-129h-103v-181h-231v181h-102z" />
<glyph unicode="X" d="M213 393q0 57 27 113l145 278l-123 60l242 47l106 -227l-125 61l-114 -227q-33 -64 -33 -101q0 -67 115 -67h442v-117h-475q-106 0 -156.5 51.5t-50.5 128.5zM479 983l228 406q34 59 84.5 89.5t105.5 30.5q48 0 91.5 -23.5t70.5 -66.5l176 -278l115 80l-80 -226h-246 l115 84l-144 232q-46 75 -104 75q-55 0 -98 -75l-209 -381zM956 274l142 193v-137h260q133 0 133 71q0 34 -31 91l-211 393l94 57l228 -407q39 -59 39 -129q0 -81 -58.5 -137t-167.5 -56h-286v-137z" />
<glyph unicode="Y" d="M217 393q0 59 27 111l469 885q31 60 81.5 91t106.5 31q53 0 99.5 -27.5t76.5 -80.5l500 -871q31 -54 31 -116q0 -85 -59 -144t-177 -59h-944q-110 0 -160.5 52t-50.5 128zM350 414q0 -39 24.5 -63.5t67.5 -24.5h908q69 0 104 24.5t35 65.5q0 29 -23 73l-465 824 q-44 80 -102 80t-102 -80l-424 -817q-23 -48 -23 -82zM827 1092q0 39 19.5 59t52.5 20q34 0 54 -19.5t20 -59.5q0 -90 -24.5 -253t-28.5 -223h-39q-4 66 -29 227t-25 249zM838 479q0 24 19 44t42 20q25 0 43.5 -17.5t18.5 -46.5q0 -25 -18 -42t-44 -17t-43.5 17.5 t-17.5 41.5z" />
<glyph unicode="Z" d="M166 66v1572h864l627 -491v-1147h-1405v66h-86zM221 127h1297v911h-461v78h-127v467h-709v-1456zM379 225v33h121v748h-121v32h307v-780h121v-33h-428zM483 1343q0 43 32.5 77t74.5 34q41 0 73.5 -31t32.5 -80q0 -43 -32 -72.5t-74 -29.5q-43 0 -75 31t-32 71zM985 1171 h526l-526 412v-412z" />
<glyph unicode="[" d="M92 258v1122q0 107 75.5 182.5t182.5 75.5h1123q107 0 182.5 -75.5t75.5 -182.5v-1122q0 -107 -75.5 -182.5t-182.5 -75.5h-1123q-107 0 -182.5 75.5t-75.5 182.5zM236 287q0 -60 41.5 -102t101.5 -42h1065q60 0 101.5 42t41.5 102v1065q0 60 -41.5 101.5t-101.5 41.5 h-1065q-60 0 -101.5 -41.5t-41.5 -101.5v-1065zM379 287v184h188v-184h-188zM379 492v61h1065v-61h-1065zM379 573v392h299q0 -96 66 -165t159 -69h17q93 0 160 69t67 165h297v-392h-1065zM786 1233v65q76 9 88 54h97v-482h-109v363h-76zM817 287v184h189v-184h-189z M1255 287v184h189v-184h-189z" />
<glyph unicode="\" d="M92 258v1122q0 107 75.5 182.5t182.5 75.5h1123q107 0 182.5 -75.5t75.5 -182.5v-1122q0 -107 -75.5 -182.5t-182.5 -75.5h-1123q-107 0 -182.5 75.5t-75.5 182.5zM236 287q0 -60 41.5 -102t101.5 -42h1065q60 0 101.5 42t41.5 102v1065q0 60 -41.5 101.5t-101.5 41.5 h-1065q-60 0 -101.5 -41.5t-41.5 -101.5v-1065zM379 287v184h188v-184h-188zM379 492v61h1065v-61h-1065zM379 573v392h299q0 -96 66 -165t159 -69h17q93 0 160 69t67 165h297v-392h-1065zM817 287v184h189v-184h-189zM1255 287v184h189v-184h-189z" />
<glyph unicode="]" d="M92 0l551 551l-551 553l537 534l551 -551l553 551v-1638h-1641z" />
<glyph unicode="^" d="M92 258v1122q0 107 75.5 182.5t182.5 75.5h1123q107 0 182.5 -75.5t75.5 -182.5v-1122q0 -107 -75.5 -182.5t-182.5 -75.5h-1123q-107 0 -182.5 75.5t-75.5 182.5zM379 338q0 -20 16 -35.5t45 -15.5h942q29 0 45.5 15.5t16.5 35.5t-16.5 35.5t-45.5 15.5h-942 q-29 0 -45 -15.5t-16 -35.5zM379 522q0 -20 16 -35.5t45 -15.5h942q29 0 45.5 15.5t16.5 35.5t-16.5 35.5t-45.5 15.5h-942q-29 0 -45 -15.5t-16 -35.5zM721 842q0 -77 47 -121.5t135 -44.5q86 0 133 45t47 121v129q0 172 -135 172q-63 0 -88 -37v76q0 25 12.5 39t30.5 14 q19 0 32 -14.5t13 -40.5h125v12q0 67 -38 111.5t-132 44.5q-88 0 -135 -44t-47 -122v-340zM860 829v156q0 22 12.5 34.5t30.5 12.5q19 0 32 -13t13 -36v-156q0 -18 -12.5 -28.5t-30.5 -10.5t-31.5 11t-13.5 30z" />
<glyph unicode="_" d="M92 258v1122q0 107 75.5 182.5t182.5 75.5h1123q107 0 182.5 -75.5t75.5 -182.5v-1122q0 -107 -75.5 -182.5t-182.5 -75.5h-1123q-107 0 -182.5 75.5t-75.5 182.5zM481 432q0 -60 43 -102.5t103 -42.5t102.5 42.5t42.5 102.5q0 70 -53 113v704q0 49 -27.5 76t-64.5 27 t-64.5 -27t-27.5 -76v-704q-54 -44 -54 -113zM492 432q0 -56 40 -95.5t95 -39.5t95 39.5t40 95.5q0 67 -53 107v710q0 45 -24.5 69.5t-57.5 24.5t-57.5 -24.5t-24.5 -69.5v-710q-53 -40 -53 -107zM502 432q0 66 53 103v714q0 39 21 61.5t51 22.5t50.5 -22.5t20.5 -61.5v-714 q54 -38 54 -103q0 -52 -36 -88.5t-89 -36.5t-89 36.5t-36 88.5zM565 1079v170q0 35 18.5 54.5t43.5 19.5t43 -19.5t18 -54.5v-170h-123zM852 383q0 -34 22.5 -60t77.5 -26t78 26t23 60v49h-82v-55q0 -25 -19 -25q-18 0 -18 25v153q0 27 18 27q19 0 19 -27v-36h82v32 q0 35 -23 60.5t-78 25.5t-77.5 -26t-22.5 -60v-143zM1083 621q0 -21 14.5 -35.5t35.5 -14.5t36 14.5t15 35.5t-15 36t-36 15t-35.5 -15t-14.5 -36zM1110 621q0 -10 7 -16.5t16 -6.5t15.5 6.5t6.5 16.5q0 22 -22 22q-9 0 -16 -6t-7 -16z" />
<glyph unicode="`" d="M92 258v1122q0 107 75.5 182.5t182.5 75.5h1123q107 0 182.5 -75.5t75.5 -182.5v-1122q0 -107 -75.5 -182.5t-182.5 -75.5h-1123q-107 0 -182.5 75.5t-75.5 182.5zM236 287q0 -60 41 -102t102 -42h1065q60 0 101.5 42t41.5 102v1065q0 60 -41.5 101.5t-101.5 41.5h-1065 q-60 0 -101.5 -41.5t-41.5 -101.5v-1065z" />
<glyph unicode="a" d="M92 258v1122q0 107 75.5 182.5t182.5 75.5h1123q107 0 182.5 -75.5t75.5 -182.5v-1122q0 -107 -75.5 -182.5t-182.5 -75.5h-1123q-107 0 -182.5 75.5t-75.5 182.5zM236 287q0 -60 41.5 -102t101.5 -42h1065q60 0 101.5 42t41.5 102v1065q0 60 -41.5 101.5t-101.5 41.5 h-1065q-60 0 -101.5 -41.5t-41.5 -101.5v-1065zM379 338q0 20 16 35.5t45 15.5h942q29 0 45.5 -15.5t16.5 -35.5t-16.5 -35.5t-45.5 -15.5h-942q-29 0 -45 15.5t-16 35.5zM584 492v83l198 58l215 579l191 140l51 -68l-162 -113l-233 -634zM915 553q0 43 30 72.5t73 29.5 q42 0 72 -30t30 -72q0 -44 -30 -73t-72 -29q-43 0 -73 29t-30 73z" />
<glyph unicode="b" d="M92 258v1122q0 107 75.5 182.5t182.5 75.5h1123q107 0 182.5 -75.5t75.5 -182.5v-1122q0 -107 -75.5 -182.5t-182.5 -75.5h-1123q-107 0 -182.5 75.5t-75.5 182.5zM236 287q0 -60 41.5 -102t101.5 -42h1065q60 0 101.5 42t41.5 102v1065q0 60 -41.5 101.5t-101.5 41.5 h-1065q-60 0 -101.5 -41.5t-41.5 -101.5v-1065zM379 338q0 20 16 35.5t45 15.5h942q29 0 45.5 -15.5t16.5 -35.5t-16.5 -35.5t-45.5 -15.5h-942q-29 0 -45 15.5t-16 35.5zM584 492v83l198 58l47 121l99 75l18 -14l-102 -278zM600 1092h72l256 -193l254 193h73l-288 -220 l286 -217h-73l-252 189l-246 -189h-78l287 217zM897 938l100 274l191 140l51 -68l-162 -113l-73 -200l-76 -56zM915 553q0 43 30 72.5t73 29.5q42 0 72 -30t30 -72q0 -44 -30 -73t-72 -29q-43 0 -73 29t-30 73z" />
<glyph unicode="c" d="M92 258v1122q0 107 75.5 182.5t182.5 75.5h1123q107 0 182.5 -75.5t75.5 -182.5v-1122q0 -107 -75.5 -182.5t-182.5 -75.5h-1123q-107 0 -182.5 75.5t-75.5 182.5zM236 287q0 -60 41.5 -102t101.5 -42h1065q60 0 101.5 42t41.5 102v1065q0 60 -41.5 101.5t-101.5 41.5 h-1065q-60 0 -101.5 -41.5t-41.5 -101.5v-1065zM518 952l41 400h705l41 -400q0 -149 -98.5 -253.5t-243.5 -104.5v-205h241q29 0 44.5 -15t15.5 -36t-15.5 -36t-44.5 -15h-588q-29 0 -45 15.5t-16 35.5t16 35.5t45 15.5h244v205q-145 0 -243.5 104.5t-98.5 253.5z" />
<glyph unicode="d" d="M92 258v1122q0 107 75.5 182.5t182.5 75.5h1123q107 0 182.5 -75.5t75.5 -182.5v-1122q0 -107 -75.5 -182.5t-182.5 -75.5h-1123q-107 0 -182.5 75.5t-75.5 182.5zM236 287q0 -60 41.5 -102t101.5 -42h1065q60 0 101.5 42t41.5 102v1065q0 60 -41.5 101.5t-101.5 41.5 h-1065q-60 0 -101.5 -41.5t-41.5 -101.5v-1065zM518 952l41 400h473l84 -189l27 -12l102 -248l6 2l-174 447h187l41 -400q0 -149 -98.5 -253.5t-243.5 -104.5v-205h241q29 0 45.5 -15.5t16.5 -35.5t-16.5 -35.5t-45.5 -15.5h-588q-29 0 -45 15.5t-16 35.5t16 35.5t45 15.5 h244v205q-145 0 -243.5 104.5t-98.5 253.5z" />
<glyph unicode="e" d="M92 258v1122q0 107 75.5 182.5t182.5 75.5h1123q107 0 182.5 -75.5t75.5 -182.5v-1122q0 -107 -75.5 -182.5t-182.5 -75.5h-1123q-107 0 -182.5 75.5t-75.5 182.5zM236 287q0 -60 41.5 -102t101.5 -42h1065q60 0 101.5 42t41.5 102v1065q0 60 -41.5 101.5t-101.5 41.5 h-1065q-60 0 -101.5 -41.5t-41.5 -101.5v-1065zM379 338q0 20 16 35.5t45 15.5h942q29 0 45.5 -15.5t16.5 -35.5t-16.5 -35.5t-45.5 -15.5h-942q-29 0 -45 15.5t-16 35.5zM379 1104q0 25 20 45l185 184q19 19 51 19t51 -19l184 -184q21 -21 21 -45q0 -22 -13.5 -36.5 t-35.5 -14.5q-25 0 -47 22l-109 109v-631q0 -29 -15.5 -45t-35.5 -16t-35.5 16t-15.5 45v631l-109 -109q-22 -22 -47 -22q-22 0 -35.5 14.5t-13.5 36.5zM930 1104q0 25 20 45l185 184q17 17 53 17q32 0 49 -17l184 -184q21 -21 21 -45q0 -22 -13.5 -36.5t-35.5 -14.5 q-25 0 -47 22l-109 109v-631q0 -29 -15.5 -45t-35.5 -16t-35.5 16t-15.5 45v631l-109 -109q-22 -22 -47 -22q-22 0 -35.5 14.5t-13.5 36.5z" />
<glyph unicode="f" d="M92 258v1122q0 107 75.5 182.5t182.5 75.5h1123q107 0 182.5 -75.5t75.5 -182.5v-1122q0 -107 -75.5 -182.5t-182.5 -75.5h-1123q-107 0 -182.5 75.5t-75.5 182.5zM236 287q0 -60 41.5 -102t101.5 -42h1061q63 0 105 42t42 102v1065q0 60 -41.5 101.5t-101.5 41.5h-1065 q-60 0 -101.5 -41.5t-41.5 -101.5v-1065zM530 391v830q0 54 37.5 92.5t91.5 38.5h558q49 0 75.5 -30.5t26.5 -72.5t-26.5 -72t-75.5 -30h-482v-205h381q47 0 74 -30.5t27 -71.5t-27 -72t-74 -31h-381v-346q0 -50 -29.5 -77t-70.5 -27q-42 0 -73.5 27.5t-31.5 76.5z" />
<glyph unicode="g" d="M92 258v1122q0 107 75.5 182.5t182.5 75.5h1123q107 0 182.5 -75.5t75.5 -182.5v-1122q0 -107 -75.5 -182.5t-182.5 -75.5h-1123q-107 0 -182.5 75.5t-75.5 182.5zM236 287q0 -60 41.5 -102t101.5 -42h1065q60 0 101.5 42t41.5 102v1065q0 60 -41.5 101.5t-101.5 41.5 h-1065q-60 0 -101.5 -41.5t-41.5 -101.5v-1065zM379 1300q0 21 16 36.5t45 15.5h942q29 0 45.5 -15.5t16.5 -36.5q0 -20 -16.5 -35.5t-45.5 -15.5h-419v-301q51 0 100 -37l-68 -75q-39 22 -84 22l-51 53v338h-420q-29 0 -45 15.5t-16 35.5zM616 389l283 320l-281 317h74 l244 -274l242 274h75l-278 -319l278 -318h-73l-244 277l-244 -277h-76zM643 692h102q0 -71 33 -104l-63 -72q-72 79 -72 176zM772 463l70 80q34 -17 69 -17q60 0 103 35l69 -78q-72 -59 -172 -59q-73 0 -139 39zM1051 778l69 80q60 -76 60 -166q0 -87 -47 -149l-70 80 q14 28 14 69q0 45 -26 86z" />
<glyph unicode="h" d="M92 258v1122q0 107 75.5 182.5t182.5 75.5h1123q107 0 182.5 -75.5t75.5 -182.5v-1122q0 -107 -75.5 -182.5t-182.5 -75.5h-1123q-107 0 -182.5 75.5t-75.5 182.5zM236 287q0 -60 41.5 -102t101.5 -42h1065q60 0 101.5 42t41.5 102v1065q0 60 -41.5 101.5t-101.5 41.5 h-1065q-60 0 -101.5 -41.5t-41.5 -101.5v-1065zM276 829q0 21 16.5 36.5t45.5 15.5h129l-109 108q-22 22 -22 47q0 22 14.5 35.5t36.5 13.5q25 0 45 -20l182 -182q21 -21 21 -54q0 -32 -21 -53l-182 -182q-21 -21 -45 -21q-22 0 -36.5 14t-14.5 36q0 25 22 47l109 108h-129 q-29 0 -45.5 15.5t-16.5 35.5zM596 516l281 320l-281 317h74l243 -276l244 276h76l-281 -317l281 -320h-76l-244 277l-241 -277h-76zM676 307v195l41 45v-240q0 -20 -21 -20q-20 0 -20 20zM676 629v409l41 -39v-325zM676 1165v166q0 9 6 15t14 6t14.5 -6t6.5 -15v-213z M758 340v254l155 176l156 -178v-252q0 -22 -15.5 -37.5t-37.5 -15.5h-205q-22 0 -37.5 15.5t-15.5 37.5zM758 721v231l102 -114zM758 1073v225q0 22 15.5 38t37.5 16h205q22 0 37.5 -16t15.5 -38v-223l-156 -178zM969 836l100 112v-227zM1110 307v240l41 -43v-197 q0 -9 -6.5 -14.5t-14.5 -5.5t-14 5.5t-6 14.5zM1110 674v321l41 45v-413zM1110 1120v211q0 9 6 15t14 6t14.5 -6t6.5 -15v-164zM1192 829q0 34 20 54l183 182q20 20 45 20q22 0 36.5 -13.5t14.5 -35.5q0 -24 -23 -47l-108 -108h129q29 0 45 -15.5t16 -36.5q0 -20 -16 -35.5 t-45 -15.5h-129l108 -108q23 -23 23 -47q0 -22 -14.5 -36t-36.5 -14q-24 0 -45 21l-183 182q-20 20 -20 53z" />
<glyph unicode="i" d="M92 258v1122q0 107 75.5 182.5t182.5 75.5h1123q107 0 182.5 -75.5t75.5 -182.5v-1122q0 -107 -75.5 -182.5t-182.5 -75.5h-1123q-107 0 -182.5 75.5t-75.5 182.5zM236 287q0 -60 41.5 -102t101.5 -42h1065q60 0 101.5 42t41.5 102v1065q0 60 -41.5 101.5t-101.5 41.5 h-1065q-60 0 -101.5 -41.5t-41.5 -101.5v-1065zM379 911q0 119 71 220t193.5 160t267.5 59t268 -59t194 -160t71 -220h-2q-72 54 -135 54t-129 -54h-2q-72 54 -129 54q-42 0 -84 -23v-496q0 -67 -47.5 -113t-114.5 -46q-66 0 -113 46t-47 113q0 22 15 34t36 12t36 -12 t15 -34q0 -24 17 -40.5t41 -16.5t41.5 16.5t17.5 40.5v500q-40 19 -78 19q-72 0 -135 -54h-2q-60 54 -129 54q-68 0 -131 -54h-6z" />
<glyph unicode="j" d="M92 258v1122q0 107 75.5 182.5t182.5 75.5h1123q107 0 182.5 -75.5t75.5 -182.5v-1122q0 -107 -75.5 -182.5t-182.5 -75.5h-1123q-107 0 -182.5 75.5t-75.5 182.5zM236 287q0 -60 41.5 -102t101.5 -42h1065q60 0 101.5 42t41.5 102v1065q0 60 -41.5 101.5t-101.5 41.5 h-1065q-60 0 -101.5 -41.5t-41.5 -101.5v-1065zM379 911q0 119 71 220t193.5 160t267.5 59t268 -59t194 -160t71 -220h-2q-72 54 -135 54t-129 -54h-2q-72 54 -129 54q-42 0 -84 -23v-496q0 -67 -47.5 -113t-114.5 -46q-66 0 -113 46t-47 113q0 22 15 34t36 12t36 -12 t15 -34q0 -24 17 -40.5t41 -16.5t41.5 16.5t17.5 40.5v500q-40 19 -78 19q-72 0 -135 -54h-2q-60 54 -129 54q-68 0 -131 -54h-6zM446 1311h5q81 -18 81 -54q0 -17 -11 -27.5t-27 -10.5q-19 0 -30.5 19.5t-17.5 72.5zM514 1163q6 -54 17 -73t30 -19q16 0 27.5 11t11.5 28 q0 35 -82 53h-4zM621 1249q6 -54 17 -73t30 -19q16 0 27.5 11t11.5 28q0 35 -82 53h-4z" />
<glyph unicode="k" d="M92 258v1122q0 107 75.5 182.5t182.5 75.5h1123q107 0 182.5 -75.5t75.5 -182.5v-1122q0 -107 -75.5 -182.5t-182.5 -75.5h-1123q-107 0 -182.5 75.5t-75.5 182.5zM236 287q0 -60 41 -102t102 -42h1065q60 0 101.5 42t41.5 102v1065q0 60 -41.5 101.5t-101.5 41.5h-1065 q-60 0 -101.5 -41.5t-41.5 -101.5v-1065zM381 1243q0 44 29.5 76.5t70.5 32.5v-15q-36 0 -61 -27.5t-25 -66.5q0 -38 25.5 -66t60.5 -28v-14q-41 0 -70.5 32t-29.5 76zM446 1243q0 26 17.5 45t42.5 19v-9q-22 0 -36.5 -16t-14.5 -39t14.5 -39t36.5 -16v-8q-25 0 -42.5 18.5 t-17.5 44.5zM586 492v860h205v-758q0 -48 36 -75t86 -27q49 0 85 27t36 75v758h205v-860q0 -65 -48 -112.5t-120.5 -70t-157.5 -22.5t-157.5 22.5t-121 70t-48.5 112.5zM606 492q0 -47 29.5 -84t76 -58t98.5 -32t103 -11v164q-30 0 -61 10.5t-56.5 40t-25.5 72.5v737h-164 v-839zM1319 1180v8q22 0 36.5 16t14.5 39t-14.5 39t-36.5 16v9q25 0 42 -19t17 -45t-17 -44.5t-42 -18.5zM1343 1135v14q36 0 61.5 27.5t25.5 66.5q0 38 -26 66t-61 28v15q41 0 71 -32.5t30 -76.5t-30 -76t-71 -32z" />
<glyph unicode="l" d="M92 258v1122q0 107 75.5 182.5t182.5 75.5h1123q107 0 182.5 -75.5t75.5 -182.5v-1122q0 -107 -75.5 -182.5t-182.5 -75.5h-1123q-107 0 -182.5 75.5t-75.5 182.5zM236 287q0 -61 40.5 -102.5t102.5 -41.5h1065q60 0 101.5 42t41.5 102v1065q0 60 -41.5 101.5 t-101.5 41.5h-1065q-60 0 -101.5 -41.5t-41.5 -101.5v-1065zM502 514q0 41 33 74l233 231l-233 234q-31 31 -31 69q0 42 31.5 74.5t72.5 32.5q39 0 70 -31l235 -237l234 233q35 35 76 35q40 0 69 -29.5t29 -69.5q0 -42 -39 -81l-229 -230l235 -231q33 -33 33 -72 q0 -41 -33 -73.5t-74 -32.5q-38 0 -79 41l-226 225l-231 -225q-41 -41 -72 -41q-41 0 -72.5 31.5t-31.5 72.5z" />
<glyph unicode="m" d="M92 258v1122q0 107 75.5 182.5t182.5 75.5h1123q107 0 182.5 -75.5t75.5 -182.5v-1122q0 -107 -75.5 -182.5t-182.5 -75.5h-1123q-107 0 -182.5 75.5t-75.5 182.5zM236 287q0 -60 41 -102t102 -42h1061q60 0 103.5 42t43.5 102v1065q0 60 -41.5 101.5t-101.5 41.5h-1065 q-60 0 -101.5 -41.5t-41.5 -101.5v-1065zM526 512l285 217l-285 217h76l246 -186l246 186h77l-284 -217l284 -217h-77l-246 188l-246 -188h-76zM700 575l148 113l26 -18q7 -35 26.5 -63t42.5 -45.5t45.5 -35t37 -40t14.5 -50.5q0 -61 -49.5 -105t-116.5 -44q-50 0 -86 28.5 t-54 75t-26 92t-8 92.5zM700 655v150l99 -76zM700 883q0 112 51 182t191 104q35 9 68 9q57 0 84.5 -24.5t27.5 -63.5q0 -52 -44 -106t-115 -81q-69 -26 -84 -110l-29 -23zM700 1133q0 14 9 25t22 11q23 0 34 -10.5t11 -25.5q0 -14 -10 -25.5t-25 -11.5q-20 0 -30.5 11 t-10.5 26zM764 1184q0 33 33 39q51 0 51 -29q0 -13 -9 -27t-22 -14q-53 0 -53 31zM846 1235q0 18 9.5 30.5t27.5 12.5q22 0 33.5 -13t11.5 -30t-10 -30t-29 -13q-21 0 -32 12.5t-11 30.5zM940 1257q0 20 12 36t33 16q47 0 47 -45q0 -22 -13 -39t-34 -17t-33 14.5t-12 34.5z M1042 1255l7 43q19 54 61 54q29 0 42 -17t13 -57l-12 -37q-9 -19 -27.5 -34t-35.5 -15q-15 0 -29 12q-19 17 -19 51z" />
<glyph unicode="n" d="M92 258v1122q0 107 75.5 182.5t182.5 75.5h1123q107 0 182.5 -75.5t75.5 -182.5v-1122q0 -107 -75.5 -182.5t-182.5 -75.5h-1123q-107 0 -182.5 75.5t-75.5 182.5zM236 287q0 -60 41.5 -102t101.5 -42h1065q60 0 101.5 42t41.5 102v1065q0 60 -41.5 101.5t-101.5 41.5 h-1065q-60 0 -101.5 -41.5t-41.5 -101.5v-1065zM379 338q0 20 16 35.5t45 15.5h942q29 0 45.5 -15.5t16.5 -35.5t-16.5 -35.5t-45.5 -15.5h-942q-29 0 -45 15.5t-16 35.5zM379 848q0 114 59 210.5t176 164.5q0 -72 -13 -124t-25.5 -76t-12.5 -30q0 -20 12 -40.5t39 -20.5 q45 0 94.5 53.5t49.5 138.5q0 79 -58 164q88 60 166 60q122 0 178 -106t56 -339h6q7 73 34 126.5t67 81t82 40t89 12.5q-59 -100 -59 -180q0 -69 21.5 -153.5t21.5 -131.5q0 -87 -86.5 -173t-243.5 -119h-100q98 39 167.5 122.5t69.5 182.5q-101 -103 -168 -103 q-34 0 -50 26t-18.5 57t-15.5 57t-40 26q6 -30 6 -59q0 -58 -31 -88.5t-84 -30.5q-20 0 -57 25t-56 57q0 -178 164 -272h-98q-72 12 -138.5 62t-109.5 116.5t-68.5 137t-25.5 126.5z" />
<glyph unicode="o" d="M92 258v1122q0 107 75.5 182.5t182.5 75.5h1123q107 0 182.5 -75.5t75.5 -182.5v-1122q0 -107 -75.5 -182.5t-182.5 -75.5h-1123q-107 0 -182.5 75.5t-75.5 182.5zM236 287q0 -60 41.5 -102t101.5 -42h1065q60 0 101.5 42t41.5 102v1065q0 60 -41.5 101.5t-101.5 41.5 h-1065q-60 0 -101.5 -41.5t-41.5 -101.5v-1065zM510 844h395l-90 -557h-215zM567 1065l64 -27l37 37l34 -37l-12 -82l10 -65l-53 4l-53 -14l-14 49v67zM578 1161v2h628l49 -350h-266l-43 180zM915 274l74 523h266v-523h-4l-127 347h-4l-202 -347h-3zM973 1282q0 47 32.5 80 t75.5 33q44 0 75.5 -33t31.5 -80q0 -44 -31.5 -76t-75.5 -32q-43 0 -75.5 32t-32.5 76z" />
<glyph unicode="p" d="M92 258v1122q0 107 75.5 182.5t182.5 75.5h1123q107 0 182.5 -75.5t75.5 -182.5v-1122q0 -107 -75.5 -182.5t-182.5 -75.5h-1123q-107 0 -182.5 75.5t-75.5 182.5zM236 287q0 -60 41 -102t102 -42h1065q60 0 101.5 42t41.5 102v1065q0 60 -41.5 101.5t-101.5 41.5h-1065 q-60 0 -101.5 -41.5t-41.5 -101.5v-1065zM379 287v10h196l173 471h-11l6 20l234 166l164 -114l-23 -72h-10l-68 -186l-452 -285h860v-10h-1069zM596 317l434 277l64 174h-330zM612 768l324 227l-324 230h86l279 -197l280 197h89l-324 -230l324 -227h-89l-280 199l-279 -199 h-86zM784 903l52 150l84 -58zM860 1124l76 228h367l-31 -103l-295 -205zM1038 995l197 140l-72 -226z" />
<glyph unicode="q" d="M92 258v1122q0 107 75.5 182.5t182.5 75.5h1123q107 0 182.5 -75.5t75.5 -182.5v-1122q0 -107 -75.5 -182.5t-182.5 -75.5h-1123q-107 0 -182.5 75.5t-75.5 182.5zM236 287q0 -60 41 -102t102 -42h1061q60 0 103.5 42t43.5 102v1065q0 60 -41.5 101.5t-101.5 41.5h-1065 q-60 0 -101.5 -41.5t-41.5 -101.5v-1065zM428 813q0 169 120.5 289.5t289.5 120.5v-103q-128 0 -218 -90t-90 -217t90 -217t218 -90v-103q-169 0 -289.5 120.5t-120.5 289.5zM936 813q0 169 120.5 289.5t289.5 120.5v-103q-114 0 -199.5 -73t-104.5 -183h279v-102h-279 q19 -110 104.5 -183t199.5 -73v-103q-169 0 -289.5 120.5t-120.5 289.5z" />
<glyph unicode="r" d="M92 258v1122q0 107 75.5 182.5t182.5 75.5h1123q107 0 182.5 -75.5t75.5 -182.5v-1122q0 -107 -75.5 -182.5t-182.5 -75.5h-1123q-107 0 -182.5 75.5t-75.5 182.5zM236 287q0 -60 41 -102t102 -42h1065q60 0 101.5 42t41.5 102v1065q0 60 -41.5 101.5t-101.5 41.5h-1065 q-60 0 -101.5 -41.5t-41.5 -101.5v-1065zM381 756q0 34 20 67l70 105l-86 63h289l102 -262l-84 70l-112 -178h256v-259h-209q-51 0 -82 33t-60 97l-94 221q-10 20 -10 43zM408 754q0 -16 8 -29l96 -221q0 26 7 50.5t13.5 37t20.5 37.5l135 213l27 -25l-60 148h-192l47 -31 l-80 -123q-22 -28 -22 -57zM535 496q0 -45 24 -77t68 -32h182v205h-244q-30 -45 -30 -96zM567 1079l64 156q36 82 176 82h246q55 0 94 -51l72 -105l88 60l-105 -269h-287l93 58l-121 166l-86 -211zM602 1096l186 -88l78 192q-32 51 -57.5 66.5t-56.5 15.5q-32 0 -59 -16.5 t-36 -42.5zM825 1290q26 -20 58 -57l166 -232l-29 -20h164l67 168l-39 -25l-90 125q-29 41 -73 41h-224zM864 494l174 227v-100h197l-143 219l219 137l114 -176q19 -36 19 -66q0 -51 -51 -127l-136 -198q-32 -48 -108 -48h-111v-112zM903 494l105 -154v47h141q37 0 55 9 t35 30l115 172q-40 -6 -74 -6h-272v45zM1133 829l133 -208h43q45 0 76.5 33t31.5 73q0 28 -16 57l-96 154z" />
<glyph unicode="s" d="M92 258v1122q0 107 75.5 182.5t182.5 75.5h1123q107 0 182.5 -75.5t75.5 -182.5v-1122q0 -107 -75.5 -182.5t-182.5 -75.5h-1123q-107 0 -182.5 75.5t-75.5 182.5zM236 287q0 -60 41 -102t102 -42h1065q60 0 101.5 42t41.5 102v1065q0 60 -41.5 101.5t-101.5 41.5h-1065 q-60 0 -101.5 -41.5t-41.5 -101.5v-1065zM410 815q0 99 40 191t106.5 159.5t159 107.5t193.5 40q99 0 191 -40t159.5 -107.5t107.5 -159.5t40 -191q0 -134 -67.5 -249.5t-182.5 -183t-248 -67.5q-135 0 -250 67.5t-182 182.5t-67 250zM457 815q0 -123 90 -270l4 4 q-29 71 -29 153q0 91 37 183q44 109 131.5 181.5t218.5 72.5v127q121 -43 200 -120t79 -145q0 -70 -80 -149.5t-199 -110.5v127q-87 -36 -160 -113.5t-73 -129.5q0 -57 72 -135.5t161 -116.5v127q106 0 199.5 58t148 152.5t54.5 198.5q0 70 -27.5 135.5t-77.5 118t-127.5 84 t-169.5 31.5q-121 0 -226.5 -67t-165.5 -173.5t-60 -222.5z" />
<glyph unicode="t" d="M92 258v1122q0 107 75.5 182.5t182.5 75.5h1123q107 0 182.5 -75.5t75.5 -182.5v-1122q0 -107 -75.5 -182.5t-182.5 -75.5h-1123q-107 0 -182.5 75.5t-75.5 182.5zM236 287q0 -60 41 -102t102 -42h1065q60 0 101.5 42t41.5 102v1065q0 60 -41.5 101.5t-101.5 41.5h-1065 q-60 0 -101.5 -41.5t-41.5 -101.5v-1065zM401 520q0 42 21 86l104 205l-88 41l176 37l80 -168l-92 47l-86 -168q-24 -50 -24 -76q0 -49 83 -49h330v-86h-352q-77 0 -114.5 38t-37.5 93zM596 956l170 299q25 43 62 65.5t77 22.5q78 0 119 -65l129 -207l84 59l-59 -165h-181 l84 61l-104 172q-37 57 -76 57q-45 0 -74 -57l-151 -280zM946 434l105 144v-103h192q100 0 100 51q0 29 -24 68l-158 291l72 43l166 -301q28 -51 28 -97q0 -59 -41 -100t-122 -41h-213v-100z" />
<glyph unicode="u" d="M92 258v1122q0 107 75.5 182.5t182.5 75.5h1123q107 0 182.5 -75.5t75.5 -182.5v-1122q0 -107 -75.5 -182.5t-182.5 -75.5h-1123q-107 0 -182.5 75.5t-75.5 182.5zM236 287q0 -60 41.5 -102t101.5 -42h1065q60 0 101.5 42t41.5 102v1065q0 60 -41.5 101.5t-101.5 41.5 h-1065q-60 0 -101.5 -41.5t-41.5 -101.5v-1065zM420 848v346q0 38 18 60t43 22t43.5 -22t18.5 -60v-231q-25 -3 -45.5 -20.5t-20.5 -39.5q0 -20 8 -33l78 -127v13l-74 118q-6 12 -6 27q0 22 23.5 39.5t46.5 17.5q22 0 37 -18l182 -250q37 -49 37 -133v-270h-225v248 q0 27 -21 55q-97 137 -120 178t-23 80zM707 969v248l200 -123v-244zM707 1227l204 125l205 -125l-205 -125zM915 850v244l201 123v-244zM1012 287v270q0 84 37 133l182 250q15 18 37 18q24 0 46.5 -18.5t22.5 -42.5q0 -11 -6 -23l-74 -118v-13l78 127q8 11 8 27 q0 24 -20 43.5t-45 22.5v231q0 38 18 60t43 22t43.5 -22t18.5 -60v-346q0 -38 -23 -79t-121 -179q-20 -27 -20 -55v-248h-225z" />
<glyph unicode="v" d="M217 762q0 43 29 88l90 137l-115 84h381l131 -342l-108 86l-148 -231h336v-338h-274q-66 0 -106.5 43.5t-76.5 126.5l-127 289q-12 27 -12 57zM254 760q0 -21 8 -37l123 -289q0 34 9.5 65t19 48t28.5 47l179 280l32 -32l-78 194h-249l57 -41l-102 -161q-27 -46 -27 -74z M418 422q0 -60 31.5 -100.5t89.5 -40.5h237v266h-317q-41 -53 -41 -125zM461 1184l84 202q45 109 231 109h322q72 0 119 -68l96 -135l114 76l-137 -348h-375l123 72l-159 219l-113 -275zM508 1204l242 -114l104 253q-43 65 -78 86t-74 21q-42 0 -76 -22.5t-48 -55.5z M799 1460q31 -19 73 -76l220 -303l-39 -24h213l90 221l-51 -35l-115 162q-40 55 -98 55h-293zM850 418l225 299v-133h256l-184 284l285 185l149 -234q25 -37 25 -82q0 -77 -66 -170l-178 -260q-23 -33 -56 -47t-87 -14h-144v-146zM901 418l137 -201v64h183q49 0 71.5 11 t46.5 40l150 223q-44 -8 -96 -8h-355v57zM1200 856l174 -272h56q59 0 100 44t41 99q0 37 -21 72l-127 202z" />
<glyph unicode="w" d="M84 848q0 127 43.5 230.5t117.5 173t175.5 117t213.5 68.5t236 21q204 0 351 -44.5t303 -141.5v-256q-108 61 -203.5 92t-202.5 31q-87 0 -163.5 -37.5t-125.5 -111.5t-49 -169q0 -143 101 -230t237 -87q119 0 215 24t191 82v-272q-145 -84 -292 -118t-362 -34 q-122 0 -236 26.5t-214 81.5t-175 132.5t-118 186t-43 235.5zM121 848q0 -183 105 -327.5t275.5 -221t368.5 -76.5q349 0 617 142v186q-65 -38 -165 -61t-204 -23q-72 0 -139 24t-120 67.5t-84.5 112t-31.5 150.5q0 109 54.5 191.5t139 123t181.5 40.5q102 0 202.5 -27.5 t166.5 -71.5v168q-281 176 -617 176q-120 0 -229.5 -22.5t-204.5 -69t-165 -113t-110 -161.5t-40 -207zM254 602v359q0 100 59 164.5t162 64.5q105 0 172.5 -65t67.5 -164t-67.5 -164.5t-172.5 -65.5q-27 0 -43 6v135q16 -8 43 -8q46 0 75.5 26.5t29.5 70.5q0 42 -29.5 68 t-75.5 26q-32 0 -59 -27t-27 -67v-482q-54 0 -94.5 38t-40.5 85zM1303 838v129h436v-129h-103v-181h-231v181h-102zM1337 872h103v-180h162v180h104v62h-369v-62z" />
<glyph unicode="x" d="M266 791q0 130 51.5 248.5t138 205t206.5 138t251 51.5q130 0 249 -51.5t205 -137.5t137.5 -205t51.5 -249q0 -131 -51.5 -251t-137.5 -207t-205 -138.5t-249 -51.5q-175 0 -324 87t-236 236.5t-87 324.5zM328 791q0 -163 116 -351l7 6q-37 84 -37 197q0 129 47 240 q27 66 65 121t92.5 102.5t130 74.5t164.5 27v168q159 -59 261 -157t102 -185q0 -58 -44.5 -125t-129.5 -127t-189 -86v164q-112 -46 -207.5 -147t-95.5 -168q0 -74 94 -175.5t209 -152.5v166q138 0 259.5 75.5t192.5 198t71 256.5q0 91 -36 176.5t-101 153t-165.5 108 t-220.5 40.5q-118 0 -227.5 -51.5t-187 -135t-124 -192.5t-46.5 -221z" />
<glyph unicode="y" d="M268 172v1286h1286v-1286h-1286zM371 274h1085v1086h-1085v-1086zM489 391v850h848v-850h-848zM592 494h643v645h-643v-645z" />
<glyph unicode="z" d="M231 760q0 161 79.5 300.5t215.5 221.5t295 82v-125q-121 0 -228 -65t-171 -176t-64 -238q0 -128 61.5 -238t168 -174.5t233.5 -64.5v-127q-119 0 -228.5 49t-188.5 130.5t-126 193t-47 231.5zM999 760q0 120 49 232t130 193.5t189.5 130t223.5 48.5v-125 q-167 0 -298.5 -120.5t-164.5 -295.5h424v-125h-424q31 -178 160 -296.5t303 -118.5v-127q-119 0 -228.5 49t-189 130.5t-127 193t-47.5 231.5z" />
<glyph unicode="{" d="M92 258v1122q0 107 75.5 182.5t182.5 75.5h1123q107 0 182.5 -75.5t75.5 -182.5v-1122q0 -107 -75.5 -182.5t-182.5 -75.5h-1123q-107 0 -182.5 75.5t-75.5 182.5zM379 287h188v184h-188v-184zM379 492h1065v61h-1065v-61zM379 573h1065v392h-297q0 -96 -67 -165 t-160 -69h-17q-93 0 -159 69t-66 165h-299v-392zM786 1233h76v-363h109v482h-97q-12 -45 -88 -54v-65zM817 287h189v184h-189v-184zM1255 287h189v184h-189v-184z" />
<glyph unicode="|" d="M92 258v1122q0 107 75.5 182.5t182.5 75.5h1123q107 0 182.5 -75.5t75.5 -182.5v-1122q0 -107 -75.5 -182.5t-182.5 -75.5h-1123q-107 0 -182.5 75.5t-75.5 182.5zM379 287h188v184h-188v-184zM379 492h1065v61h-1065v-61zM379 573h524v158q-93 0 -159 69t-66 165h-299 v-392zM817 287h189v184h-189v-184zM920 573h524v392h-297q0 -96 -67 -165t-160 -69v-158zM1255 287h189v184h-189v-184z" />
<glyph unicode="}" d="M88 0v1638l553 -551l551 551l537 -534l-551 -553l551 -551h-1641z" />
<glyph unicode="~" d="M92 258v1122q0 107 75.5 182.5t182.5 75.5h1123q107 0 182.5 -75.5t75.5 -182.5v-1122q0 -107 -75.5 -182.5t-182.5 -75.5h-1123q-107 0 -182.5 75.5t-75.5 182.5z" />
<glyph unicode="&#xa0;" />
<glyph unicode="&#xa6;" d="M92 258v1122q0 107 75.5 182.5t182.5 75.5h1123q107 0 182.5 -75.5t75.5 -182.5v-1122q0 -107 -75.5 -182.5t-182.5 -75.5h-1123q-107 0 -182.5 75.5t-75.5 182.5zM379 287h188v184h-188v-184zM379 492h1065v61h-1065v-61zM379 573h524v158q-93 0 -159 69t-66 165h-299 v-392zM817 287h189v184h-189v-184zM920 573h524v392h-297q0 -96 -67 -165t-160 -69v-158zM1255 287h189v184h-189v-184z" />
<glyph unicode="&#xad;" d="M92 258v1122q0 107 75.5 182.5t182.5 75.5h1123q107 0 182.5 -75.5t75.5 -182.5v-1122q0 -107 -75.5 -182.5t-182.5 -75.5h-1123q-107 0 -182.5 75.5t-75.5 182.5zM236 287q0 -60 41.5 -102t101.5 -42h1065q60 0 101.5 42t41.5 102v1065q0 60 -41.5 101.5t-101.5 41.5 h-1065q-60 0 -101.5 -41.5t-41.5 -101.5v-1065zM481 432q0 69 54 113v704q0 49 27.5 76t64.5 27t64.5 -27t27.5 -76v-704q53 -43 53 -113q0 -60 -42.5 -102.5t-102.5 -42.5t-103 42.5t-43 102.5zM492 432q0 -56 40 -95.5t95 -39.5t95 39.5t40 95.5q0 67 -53 107v710 q0 45 -24.5 69.5t-57.5 24.5t-57.5 -24.5t-24.5 -69.5v-710q-53 -40 -53 -107zM502 432q0 66 53 103v714q0 39 21 61.5t51 22.5t50.5 -22.5t20.5 -61.5v-714q54 -38 54 -103q0 -52 -36 -88.5t-89 -36.5t-89 36.5t-36 88.5zM565 1079h123v170q0 35 -18 54.5t-43 19.5 t-43.5 -19.5t-18.5 -54.5v-170zM852 383v143q0 34 22.5 60t77.5 26t78 -25.5t23 -60.5v-32h-82v36q0 27 -19 27q-18 0 -18 -27v-153q0 -25 18 -25q19 0 19 25v55h82v-49q0 -34 -23 -60t-78 -26t-77.5 26t-22.5 60zM1083 621q0 21 14.5 36t35.5 15t36 -15t15 -36t-15 -35.5 t-36 -14.5t-35.5 14.5t-14.5 35.5zM1110 621q0 -10 7 -16.5t16 -6.5t15.5 6.5t6.5 16.5q0 22 -22 22q-9 0 -16 -6t-7 -16z" />
<glyph unicode="&#x2000;" horiz-adv-x="819" />
<glyph unicode="&#x2001;" horiz-adv-x="1638" />
<glyph unicode="&#x2002;" horiz-adv-x="819" />
<glyph unicode="&#x2003;" horiz-adv-x="1638" />
<glyph unicode="&#x2004;" horiz-adv-x="546" />
<glyph unicode="&#x2005;" horiz-adv-x="409" />
<glyph unicode="&#x2006;" horiz-adv-x="273" />
<glyph unicode="&#x2007;" horiz-adv-x="273" />
<glyph unicode="&#x2008;" horiz-adv-x="204" />
<glyph unicode="&#x2009;" horiz-adv-x="327" />
<glyph unicode="&#x200a;" horiz-adv-x="91" />
<glyph unicode="&#x2010;" d="M92 258v1122q0 107 75.5 182.5t182.5 75.5h1123q107 0 182.5 -75.5t75.5 -182.5v-1122q0 -107 -75.5 -182.5t-182.5 -75.5h-1123q-107 0 -182.5 75.5t-75.5 182.5zM236 287q0 -60 41.5 -102t101.5 -42h1065q60 0 101.5 42t41.5 102v1065q0 60 -41.5 101.5t-101.5 41.5 h-1065q-60 0 -101.5 -41.5t-41.5 -101.5v-1065zM481 432q0 69 54 113v704q0 49 27.5 76t64.5 27t64.5 -27t27.5 -76v-704q53 -43 53 -113q0 -60 -42.5 -102.5t-102.5 -42.5t-103 42.5t-43 102.5zM492 432q0 -56 40 -95.5t95 -39.5t95 39.5t40 95.5q0 67 -53 107v710 q0 45 -24.5 69.5t-57.5 24.5t-57.5 -24.5t-24.5 -69.5v-710q-53 -40 -53 -107zM502 432q0 66 53 103v714q0 39 21 61.5t51 22.5t50.5 -22.5t20.5 -61.5v-714q54 -38 54 -103q0 -52 -36 -88.5t-89 -36.5t-89 36.5t-36 88.5zM565 1079h123v170q0 35 -18 54.5t-43 19.5 t-43.5 -19.5t-18.5 -54.5v-170zM852 383v143q0 34 22.5 60t77.5 26t78 -25.5t23 -60.5v-32h-82v36q0 27 -19 27q-18 0 -18 -27v-153q0 -25 18 -25q19 0 19 25v55h82v-49q0 -34 -23 -60t-78 -26t-77.5 26t-22.5 60zM1083 621q0 21 14.5 36t35.5 15t36 -15t15 -36t-15 -35.5 t-36 -14.5t-35.5 14.5t-14.5 35.5zM1110 621q0 -10 7 -16.5t16 -6.5t15.5 6.5t6.5 16.5q0 22 -22 22q-9 0 -16 -6t-7 -16z" />
<glyph unicode="&#x2011;" d="M92 258v1122q0 107 75.5 182.5t182.5 75.5h1123q107 0 182.5 -75.5t75.5 -182.5v-1122q0 -107 -75.5 -182.5t-182.5 -75.5h-1123q-107 0 -182.5 75.5t-75.5 182.5zM236 287q0 -60 41.5 -102t101.5 -42h1065q60 0 101.5 42t41.5 102v1065q0 60 -41.5 101.5t-101.5 41.5 h-1065q-60 0 -101.5 -41.5t-41.5 -101.5v-1065zM481 432q0 69 54 113v704q0 49 27.5 76t64.5 27t64.5 -27t27.5 -76v-704q53 -43 53 -113q0 -60 -42.5 -102.5t-102.5 -42.5t-103 42.5t-43 102.5zM492 432q0 -56 40 -95.5t95 -39.5t95 39.5t40 95.5q0 67 -53 107v710 q0 45 -24.5 69.5t-57.5 24.5t-57.5 -24.5t-24.5 -69.5v-710q-53 -40 -53 -107zM502 432q0 66 53 103v714q0 39 21 61.5t51 22.5t50.5 -22.5t20.5 -61.5v-714q54 -38 54 -103q0 -52 -36 -88.5t-89 -36.5t-89 36.5t-36 88.5zM565 1079h123v170q0 35 -18 54.5t-43 19.5 t-43.5 -19.5t-18.5 -54.5v-170zM852 383v143q0 34 22.5 60t77.5 26t78 -25.5t23 -60.5v-32h-82v36q0 27 -19 27q-18 0 -18 -27v-153q0 -25 18 -25q19 0 19 25v55h82v-49q0 -34 -23 -60t-78 -26t-77.5 26t-22.5 60zM1083 621q0 21 14.5 36t35.5 15t36 -15t15 -36t-15 -35.5 t-36 -14.5t-35.5 14.5t-14.5 35.5zM1110 621q0 -10 7 -16.5t16 -6.5t15.5 6.5t6.5 16.5q0 22 -22 22q-9 0 -16 -6t-7 -16z" />
<glyph unicode="&#x2012;" d="M92 258v1122q0 107 75.5 182.5t182.5 75.5h1123q107 0 182.5 -75.5t75.5 -182.5v-1122q0 -107 -75.5 -182.5t-182.5 -75.5h-1123q-107 0 -182.5 75.5t-75.5 182.5zM236 287q0 -60 41.5 -102t101.5 -42h1065q60 0 101.5 42t41.5 102v1065q0 60 -41.5 101.5t-101.5 41.5 h-1065q-60 0 -101.5 -41.5t-41.5 -101.5v-1065zM481 432q0 69 54 113v704q0 49 27.5 76t64.5 27t64.5 -27t27.5 -76v-704q53 -43 53 -113q0 -60 -42.5 -102.5t-102.5 -42.5t-103 42.5t-43 102.5zM492 432q0 -56 40 -95.5t95 -39.5t95 39.5t40 95.5q0 67 -53 107v710 q0 45 -24.5 69.5t-57.5 24.5t-57.5 -24.5t-24.5 -69.5v-710q-53 -40 -53 -107zM502 432q0 66 53 103v714q0 39 21 61.5t51 22.5t50.5 -22.5t20.5 -61.5v-714q54 -38 54 -103q0 -52 -36 -88.5t-89 -36.5t-89 36.5t-36 88.5zM565 1079h123v170q0 35 -18 54.5t-43 19.5 t-43.5 -19.5t-18.5 -54.5v-170zM852 383v143q0 34 22.5 60t77.5 26t78 -25.5t23 -60.5v-32h-82v36q0 27 -19 27q-18 0 -18 -27v-153q0 -25 18 -25q19 0 19 25v55h82v-49q0 -34 -23 -60t-78 -26t-77.5 26t-22.5 60zM1083 621q0 21 14.5 36t35.5 15t36 -15t15 -36t-15 -35.5 t-36 -14.5t-35.5 14.5t-14.5 35.5zM1110 621q0 -10 7 -16.5t16 -6.5t15.5 6.5t6.5 16.5q0 22 -22 22q-9 0 -16 -6t-7 -16z" />
<glyph unicode="&#x2013;" horiz-adv-x="1207" d="M92 258v1122q0 107 47 182.5t114 75.5h702q67 0 114 -75.5t47 -182.5v-1122q0 -107 -47 -182.5t-114 -75.5h-702q-67 0 -114 75.5t-47 182.5zM182 287q0 -60 26 -102t63 -42h666q37 0 63 42t26 102v1065q0 60 -26 101.5t-63 41.5h-666q-37 0 -63 -41.5t-26 -101.5v-1065z M335 432q0 69 34 113v704q0 49 17 76t40 27t40.5 -27t17.5 -76v-704q33 -43 33 -113q0 -60 -26.5 -102.5t-64 -42.5t-64.5 42.5t-27 102.5zM342 432q0 -56 25 -95.5t59.5 -39.5t59.5 39.5t25 95.5q0 67 -34 107v710q0 45 -15 69.5t-35.5 24.5t-36 -24.5t-15.5 -69.5v-710 q-33 -40 -33 -107zM348 432q0 66 33 103v714q0 39 13.5 61.5t32 22.5t31.5 -22.5t13 -61.5v-714q33 -38 33 -103q0 -52 -22.5 -88.5t-55.5 -36.5t-55.5 36.5t-22.5 88.5zM388 1079h76v170q0 35 -11 54.5t-26.5 19.5t-27 -19.5t-11.5 -54.5v-170zM567 383v143q0 34 14 60 t48.5 26t48.5 -25.5t14 -60.5v-32h-51v36q0 27 -12 27q-11 0 -11 -27v-153q0 -25 11 -25q12 0 12 25v55h51v-49q0 -34 -14 -60t-48.5 -26t-48.5 26t-14 60zM711 621q0 21 9 36t22.5 15t22.5 -15t9 -36t-9 -35.5t-22.5 -14.5t-22.5 14.5t-9 35.5zM728 621q0 -10 4.5 -16.5 t10 -6.5t9.5 6.5t4 16.5q0 22 -14 22q-5 0 -9.5 -6t-4.5 -16z" />
<glyph unicode="&#x2014;" horiz-adv-x="2231" d="M92 258v1122q0 107 94.5 182.5t227.5 75.5h1404q133 0 227.5 -75.5t94.5 -182.5v-1122q0 -107 -94.5 -182.5t-227.5 -75.5h-1404q-133 0 -227.5 75.5t-94.5 182.5zM272 287q0 -60 52 -102t127 -42h1330q75 0 127 42t52 102v1065q0 60 -52 101.5t-127 41.5h-1330 q-75 0 -127 -41.5t-52 -101.5v-1065zM578 432q0 69 68 113v704q0 49 34 76t80.5 27t80.5 -27t34 -76v-704q67 -43 67 -113q0 -60 -53.5 -102.5t-128 -42.5t-128.5 42.5t-54 102.5zM592 432q0 -56 50 -95.5t118.5 -39.5t118.5 39.5t50 95.5q0 67 -66 107v710q0 45 -30.5 69.5 t-72 24.5t-72 -24.5t-30.5 -69.5v-710q-66 -40 -66 -107zM604 432q0 66 67 103v714q0 39 26 61.5t63.5 22.5t63 -22.5t25.5 -61.5v-714q68 -38 68 -103q0 -52 -45 -88.5t-111.5 -36.5t-111.5 36.5t-45 88.5zM683 1079h154v170q0 35 -22.5 54.5t-54 19.5t-54.5 -19.5 t-23 -54.5v-170zM1042 383v143q0 34 28 60t96.5 26t97.5 -25.5t29 -60.5v-32h-103v36q0 27 -23 27t-23 -27v-153q0 -25 23 -25t23 25v55h103v-49q0 -34 -29 -60t-97.5 -26t-96.5 26t-28 60zM1330 621q0 21 18.5 36t44.5 15t44.5 -15t18.5 -36t-18.5 -35.5t-44.5 -14.5 t-44.5 14.5t-18.5 35.5zM1364 621q0 -10 9 -16.5t20 -6.5t19 6.5t8 16.5q0 22 -27 22q-11 0 -20 -6t-9 -16z" />
<glyph unicode="&#x201a;" d="M92 258v1122q0 107 75.5 182.5t182.5 75.5h1123q107 0 182.5 -75.5t75.5 -182.5v-1122q0 -107 -75.5 -182.5t-182.5 -75.5h-1123q-107 0 -182.5 75.5t-75.5 182.5zM236 287q0 -60 41 -102t102 -42h1065q60 0 101.5 42t41.5 102v1065q0 60 -41.5 101.5t-101.5 41.5h-1065 q-60 0 -101.5 -41.5t-41.5 -101.5v-1065zM424 596l135 78l-123 71l25 48l151 -88l199 114l-199 117l-151 -86l-25 45l123 72l-135 77l49 86l133 -77v141h53v-172l201 -113v228l-149 86l26 47l123 -72v156h101v-154l120 70l27 -47l-147 -84v-230l198 113v172h51v-143l138 79 l51 -86l-135 -79l120 -70l-26 -45l-150 84l-196 -115l196 -114l148 88l28 -48l-120 -71l135 -78l-49 -86l-140 80v-144h-51v175l-198 112v-231l147 -84l-25 -45l-122 67v-153h-101v155l-123 -69l-26 45l149 88v227l-201 -117v-170h-53v140l-133 -76z" />
<glyph unicode="&#x202f;" horiz-adv-x="327" />
<glyph unicode="&#x205f;" horiz-adv-x="409" />
<glyph unicode="&#xe000;" horiz-adv-x="1433" d="M0 0v1434h1434v-1434h-1434z" />
</font>
</defs>
</svg>
